<?xml version="1.0" encoding="UTF-8" standalone="no"?>
<!DOCTYPE svg PUBLIC "-//W3C//DTD SVG 1.1//EN"
 "http://www.w3.org/Graphics/SVG/1.1/DTD/svg11.dtd">
<!-- Generated by graphviz version 2.40.1 (20161225.0304)
 -->
<!-- Title: G Pages: 1 -->
<svg width="193pt" height="255pt"
 viewBox="0.00 0.00 192.60 255.00" xmlns="http://www.w3.org/2000/svg" xmlns:xlink="http://www.w3.org/1999/xlink">
<g id="graph0" class="graph" transform="scale(1 1) rotate(0) translate(4 251)">
<title>G</title>
<!-- A0 -->
<g id="node1" class="node">
<title>A0</title>
<ellipse fill="none" stroke="#000000" cx="85.958" cy="-236" rx="11" ry="11"/>
</g>
<!-- A1 -->
<g id="node2" class="node">
<title>A1</title>
<polygon fill="none" stroke="#000000" points="85.958,-188 67.958,-170 85.958,-152 103.958,-170 85.958,-188"/>
</g>
<!-- A0&#45;&gt;A1 -->
<g id="edge1" class="edge">
<title>A0&#45;&gt;A1</title>
<path fill="none" stroke="#000000" d="M85.958,-224.804C85.958,-217.5358 85.958,-207.7135 85.958,-198.3916"/>
<polygon fill="#000000" stroke="#000000" points="85.958,-188.2423 90.4581,-198.2423 85.958,-193.2423 85.9581,-198.2423 85.9581,-198.2423 85.9581,-198.2423 85.958,-193.2423 81.4581,-198.2424 85.958,-188.2423 85.958,-188.2423"/>
</g>
<!-- A2 -->
<g id="node3" class="node">
<title>A2</title>
<path fill="none" stroke="#000000" d="M12,-67.5C12,-67.5 79.916,-67.5 79.916,-67.5 85.916,-67.5 91.916,-73.5 91.916,-79.5 91.916,-79.5 91.916,-91.5 91.916,-91.5 91.916,-97.5 85.916,-103.5 79.916,-103.5 79.916,-103.5 12,-103.5 12,-103.5 6,-103.5 0,-97.5 0,-91.5 0,-91.5 0,-79.5 0,-79.5 0,-73.5 6,-67.5 12,-67.5"/>
<text text-anchor="middle" x="45.958" y="-82.5" font-family="Helvetica,sans-Serif" font-size="10.00" fill="#000000">🔒 /dashboard</text>
</g>
<!-- A1&#45;&gt;A2 -->
<g id="edge2" class="edge">
<title>A1&#45;&gt;A2</title>
<path fill="none" stroke="#000000" d="M76.3713,-161.4894C69.3842,-154.7345 60.2775,-144.6788 55.151,-134 52.1815,-127.8144 50.1703,-120.7541 48.8083,-113.9713"/>
<polygon fill="#000000" stroke="#000000" points="47.1582,-103.7063 53.1884,-112.8653 47.9518,-108.643 48.7454,-113.5796 48.7454,-113.5796 48.7454,-113.5796 47.9518,-108.643 44.3025,-114.2939 47.1582,-103.7063 47.1582,-103.7063"/>
<text text-anchor="middle" x="84.8615" y="-125" font-family="Helvetica,sans-Serif" font-size="10.00" fill="#000000">0⃣ loggedIn</text>
</g>
<!-- A3 -->
<g id="node4" class="node">
<title>A3</title>
<path fill="none" stroke="#000000" d="M122.0635,-67.5C122.0635,-67.5 163.8525,-67.5 163.8525,-67.5 169.8525,-67.5 175.8525,-73.5 175.8525,-79.5 175.8525,-79.5 175.8525,-91.5 175.8525,-91.5 175.8525,-97.5 169.8525,-103.5 163.8525,-103.5 163.8525,-103.5 122.0635,-103.5 122.0635,-103.5 116.0635,-103.5 110.0635,-97.5 110.0635,-91.5 110.0635,-91.5 110.0635,-79.5 110.0635,-79.5 110.0635,-73.5 116.0635,-67.5 122.0635,-67.5"/>
<text text-anchor="middle" x="142.958" y="-82.5" font-family="Helvetica,sans-Serif" font-size="10.00" fill="#000000">🔑 /login</text>
</g>
<!-- A1&#45;&gt;A3 -->
<g id="edge3" class="edge">
<title>A1&#45;&gt;A3</title>
<path fill="none" stroke="#000000" d="M94.0063,-159.7816C99.5106,-152.6713 106.8818,-142.9059 112.958,-134 117.6661,-127.0993 122.5296,-119.4789 126.9347,-112.3628"/>
<polygon fill="#000000" stroke="#000000" points="132.2229,-103.7109 130.8472,-114.5902 129.6153,-107.9771 127.0077,-112.2433 127.0077,-112.2433 127.0077,-112.2433 129.6153,-107.9771 123.1681,-109.8964 132.2229,-103.7109 132.2229,-103.7109"/>
<text text-anchor="middle" x="152.781" y="-125" font-family="Helvetica,sans-Serif" font-size="10.00" fill="#000000">0⃣ ~loggedIn</text>
</g>
<!-- A4 -->
<g id="node5" class="node">
<title>A4</title>
<ellipse fill="none" stroke="#000000" cx="142.958" cy="-15" rx="11" ry="11"/>
<ellipse fill="none" stroke="#000000" cx="142.958" cy="-15" rx="15" ry="15"/>
</g>
<!-- A3&#45;&gt;A4 -->
<g id="edge4" class="edge">
<title>A3&#45;&gt;A4</title>
<path fill="none" stroke="#000000" d="M142.958,-67.3445C142.958,-59.1071 142.958,-49.2264 142.958,-40.2794"/>
<polygon fill="#000000" stroke="#000000" points="142.958,-30.0025 147.4581,-40.0024 142.958,-35.0025 142.9581,-40.0025 142.9581,-40.0025 142.9581,-40.0025 142.958,-35.0025 138.4581,-40.0025 142.958,-30.0025 142.958,-30.0025"/>
</g>
</g>
</svg>
