<?xml version="1.0" encoding="UTF-8" standalone="no"?>
<!DOCTYPE svg PUBLIC "-//W3C//DTD SVG 1.1//EN"
 "http://www.w3.org/Graphics/SVG/1.1/DTD/svg11.dtd">
<!-- Generated by graphviz version 2.40.1 (20161225.0304)
 -->
<!-- Title: G Pages: 1 -->
<svg width="268pt" height="132pt"
 viewBox="0.00 0.00 268.35 132.00" xmlns="http://www.w3.org/2000/svg" xmlns:xlink="http://www.w3.org/1999/xlink">
<g id="graph0" class="graph" transform="scale(1 1) rotate(0) translate(4 128)">
<title>G</title>
<!-- A0 -->
<g id="node1" class="node">
<title>A0</title>
<polygon fill="none" stroke="#000000" points="0,-87.5 0,-123.5 178.583,-123.5 178.583,-87.5 0,-87.5"/>
<text text-anchor="middle" x="89.2915" y="-102.5" font-family="Helvetica,sans-Serif" font-size="10.00" fill="#000000">itemtype:https://schema.org/Class</text>
</g>
<!-- A1 -->
<g id="node2" class="node">
<title>A1</title>
<polygon fill="none" stroke="#000000" points="196.231,-87.5 196.231,-123.5 260.352,-123.5 260.352,-87.5 196.231,-87.5"/>
<text text-anchor="middle" x="228.2915" y="-102.5" font-family="Helvetica,sans-Serif" font-size="10.00" fill="#000000">⚙ Entity</text>
</g>
<!-- A2 -->
<g id="node3" class="node">
<title>A2</title>
<polygon fill="none" stroke="#000000" points="196.235,-.5 196.235,-36.5 260.348,-36.5 260.348,-.5 196.235,-.5"/>
<text text-anchor="middle" x="228.2915" y="-15.5" font-family="Helvetica,sans-Serif" font-size="10.00" fill="#000000">🔡 Task</text>
</g>
<!-- A1&#45;&gt;A2 -->
<g id="edge1" class="edge">
<title>A1&#45;&gt;A2</title>
<path fill="none" stroke="#000000" d="M228.2915,-87.4735C228.2915,-75.6918 228.2915,-60.0607 228.2915,-46.6581"/>
<polygon fill="#000000" stroke="#000000" points="228.2915,-36.5034 232.7916,-46.5033 228.2915,-41.5034 228.2916,-46.5034 228.2916,-46.5034 228.2916,-46.5034 228.2915,-41.5034 223.7916,-46.5034 228.2915,-36.5034 228.2915,-36.5034"/>
</g>
</g>
</svg>
