<?xml version="1.0" encoding="UTF-8" standalone="no"?>
<!DOCTYPE svg PUBLIC "-//W3C//DTD SVG 1.1//EN"
 "http://www.w3.org/Graphics/SVG/1.1/DTD/svg11.dtd">
<!-- Generated by graphviz version 2.40.1 (20161225.0304)
 -->
<!-- Title: G Pages: 1 -->
<svg width="260pt" height="116pt"
 viewBox="0.00 0.00 260.19 116.00" xmlns="http://www.w3.org/2000/svg" xmlns:xlink="http://www.w3.org/1999/xlink">
<g id="graph0" class="graph" transform="scale(1 1) rotate(0) translate(4 112)">
<title>G</title>
<!-- A0 -->
<g id="node1" class="node">
<title>A0</title>
<polygon fill="none" stroke="#000000" points="84.5176,-108 4.1604,-108 .1604,-104 .1604,-72 80.5176,-72 84.5176,-76 84.5176,-108"/>
<polyline fill="none" stroke="#000000" points="80.5176,-104 .1604,-104 "/>
<polyline fill="none" stroke="#000000" points="80.5176,-104 80.5176,-72 "/>
<polyline fill="none" stroke="#000000" points="80.5176,-104 84.5176,-108 "/>
<text text-anchor="middle" x="42.339" y="-87" font-family="Helvetica,sans-Serif" font-size="10.00" fill="#000000">🔌 Service A</text>
</g>
<!-- A1 -->
<g id="node2" class="node">
<title>A1</title>
<polygon fill="none" stroke="#000000" points="84.5176,-36 4.1604,-36 .1604,-32 .1604,0 80.5176,0 84.5176,-4 84.5176,-36"/>
<polyline fill="none" stroke="#000000" points="80.5176,-32 .1604,-32 "/>
<polyline fill="none" stroke="#000000" points="80.5176,-32 80.5176,0 "/>
<polyline fill="none" stroke="#000000" points="80.5176,-32 84.5176,-36 "/>
<text text-anchor="middle" x="42.339" y="-15" font-family="Helvetica,sans-Serif" font-size="10.00" fill="#000000">🔌 Service B</text>
</g>
<!-- A0&#45;&gt;A1 -->
<g id="edge1" class="edge">
<title>A0&#45;&gt;A1</title>
<path fill="none" stroke="#000000" d="M42.339,-71.8314C42.339,-61 42.339,-47.2876 42.339,-36.4133"/>
</g>
<!-- A2 -->
<g id="node3" class="node">
<title>A2</title>
<polygon fill="none" stroke="#000000" points="215.0694,-108 143.6086,-108 139.6086,-104 139.6086,-72 211.0694,-72 215.0694,-76 215.0694,-108"/>
<polyline fill="none" stroke="#000000" points="211.0694,-104 139.6086,-104 "/>
<polyline fill="none" stroke="#000000" points="211.0694,-104 211.0694,-72 "/>
<polyline fill="none" stroke="#000000" points="211.0694,-104 215.0694,-108 "/>
<text text-anchor="middle" x="177.339" y="-87" font-family="Helvetica,sans-Serif" font-size="10.00" fill="#000000">🔌 Service</text>
</g>
<!-- A3 -->
<g id="node4" class="node">
<title>A3</title>
<polygon fill="none" stroke="#000000" points="252.0373,-36 106.6407,-36 102.6407,-32 102.6407,0 248.0373,0 252.0373,-4 252.0373,-36"/>
<polyline fill="none" stroke="#000000" points="248.0373,-32 102.6407,-32 "/>
<polyline fill="none" stroke="#000000" points="248.0373,-32 248.0373,0 "/>
<polyline fill="none" stroke="#000000" points="248.0373,-32 252.0373,-36 "/>
<text text-anchor="middle" x="177.339" y="-21" font-family="Helvetica,sans-Serif" font-size="10.00" fill="#000000">itemtype:</text>
<text text-anchor="middle" x="177.339" y="-9" font-family="Helvetica,sans-Serif" font-size="10.00" fill="#000000">https://schema.org/WebAPI</text>
</g>
<!-- A2&#45;&gt;A3 -->
<g id="edge2" class="edge">
<title>A2&#45;&gt;A3</title>
<path fill="none" stroke="#000000" d="M177.339,-71.8314C177.339,-61 177.339,-47.2876 177.339,-36.4133"/>
</g>
</g>
</svg>
