<?xml version="1.0" encoding="UTF-8" standalone="no"?>
<!DOCTYPE svg PUBLIC "-//W3C//DTD SVG 1.1//EN"
 "http://www.w3.org/Graphics/SVG/1.1/DTD/svg11.dtd">
<!-- Generated by graphviz version 2.40.1 (20161225.0304)
 -->
<!-- Title: G Pages: 1 -->
<svg width="146pt" height="116pt"
 viewBox="0.00 0.00 146.03 116.00" xmlns="http://www.w3.org/2000/svg" xmlns:xlink="http://www.w3.org/1999/xlink">
<g id="graph0" class="graph" transform="scale(1 1) rotate(0) translate(4 112)">
<title>G</title>
<!-- A0 -->
<g id="node1" class="node">
<title>A0</title>
<polygon fill="none" stroke="#000000" points="96.0145,-108 54.0145,-108 54.0145,-112 42.0145,-112 42.0145,-72 96.0145,-72 96.0145,-108"/>
<polyline fill="none" stroke="#000000" points="42.0145,-108 54.0145,-108 "/>
<text text-anchor="middle" x="69.0145" y="-87" font-family="Helvetica,sans-Serif" font-size="10.00" fill="#000000">Thing</text>
</g>
<!-- A0&#45;&gt;A0 -->
<g id="edge1" class="edge">
<title>A0&#45;&gt;A0</title>
<path fill="none" stroke="#000000" stroke-dasharray="5,2" d="M96.2553,-103.4868C106.0384,-103.7769 114.0145,-99.2813 114.0145,-90 114.0145,-84.1992 110.8988,-80.2678 106.1736,-78.2058"/>
<polygon fill="#000000" stroke="#000000" points="96.2553,-76.5132 106.8698,-73.7597 101.184,-77.3544 106.1128,-78.1955 106.1128,-78.1955 106.1128,-78.1955 101.184,-77.3544 105.3557,-82.6314 96.2553,-76.5132 96.2553,-76.5132"/>
</g>
<!-- A1 -->
<g id="node2" class="node">
<title>A1</title>
<polygon fill="none" stroke="#000000" points="138.0435,-36 11.9855,-36 11.9855,-40 -.0145,-40 -.0145,0 138.0435,0 138.0435,-36"/>
<polyline fill="none" stroke="#000000" points="-.0145,-36 11.9855,-36 "/>
<text text-anchor="middle" x="69.0145" y="-21" font-family="Helvetica,sans-Serif" font-size="10.00" fill="#000000">see:</text>
<text text-anchor="middle" x="69.0145" y="-9" font-family="Helvetica,sans-Serif" font-size="10.00" fill="#000000">https://schema.org/Thing</text>
</g>
<!-- A0&#45;&gt;A1 -->
<g id="edge2" class="edge">
<title>A0&#45;&gt;A1</title>
<path fill="none" stroke="#000000" stroke-dasharray="5,2" d="M69.0145,-71.8314C69.0145,-61 69.0145,-47.2876 69.0145,-36.4133"/>
</g>
</g>
</svg>
