<?xml version="1.0" encoding="UTF-8" standalone="no"?>
<!DOCTYPE svg PUBLIC "-//W3C//DTD SVG 1.1//EN"
 "http://www.w3.org/Graphics/SVG/1.1/DTD/svg11.dtd">
<!-- Generated by graphviz version 2.40.1 (20161225.0304)
 -->
<!-- Title: G Pages: 1 -->
<svg width="242pt" height="753pt"
 viewBox="0.00 0.00 242.00 753.00" xmlns="http://www.w3.org/2000/svg" xmlns:xlink="http://www.w3.org/1999/xlink">
<g id="graph0" class="graph" transform="scale(1 1) rotate(0) translate(4 749)">
<title>G</title>
<!-- A0 -->
<g id="node1" class="node">
<title>A0</title>
<ellipse fill="none" stroke="#000000" cx="135" cy="-734" rx="11" ry="11"/>
</g>
<!-- A1 -->
<g id="node2" class="node">
<title>A1</title>
<path fill="none" stroke="#000000" d="M120,-650.5C120,-650.5 150,-650.5 150,-650.5 156,-650.5 162,-656.5 162,-662.5 162,-662.5 162,-674.5 162,-674.5 162,-680.5 156,-686.5 150,-686.5 150,-686.5 120,-686.5 120,-686.5 114,-686.5 108,-680.5 108,-674.5 108,-674.5 108,-662.5 108,-662.5 108,-656.5 114,-650.5 120,-650.5"/>
<text text-anchor="middle" x="134.6685" y="-665.5" font-family="Helvetica,sans-Serif" font-size="10.00" fill="#000000">aRb</text>
</g>
<!-- A0&#45;&gt;A1 -->
<g id="edge1" class="edge">
<title>A0&#45;&gt;A1</title>
<path fill="none" stroke="#000000" d="M135,-722.8888C135,-715.6757 135,-705.9278 135,-696.6765"/>
<polygon fill="#000000" stroke="#000000" points="135,-686.6041 139.5001,-696.6041 135,-691.6041 135.0001,-696.6041 135.0001,-696.6041 135.0001,-696.6041 135,-691.6041 130.5001,-696.6042 135,-686.6041 135,-686.6041"/>
</g>
<!-- A2 -->
<g id="node3" class="node">
<title>A2</title>
<path fill="none" stroke="#000000" d="M120,-577.5C120,-577.5 150,-577.5 150,-577.5 156,-577.5 162,-583.5 162,-589.5 162,-589.5 162,-601.5 162,-601.5 162,-607.5 156,-613.5 150,-613.5 150,-613.5 120,-613.5 120,-613.5 114,-613.5 108,-607.5 108,-601.5 108,-601.5 108,-589.5 108,-589.5 108,-583.5 114,-577.5 120,-577.5"/>
<text text-anchor="middle" x="134.889" y="-592.5" font-family="Helvetica,sans-Serif" font-size="10.00" fill="#000000">bRc</text>
</g>
<!-- A1&#45;&gt;A2 -->
<g id="edge2" class="edge">
<title>A1&#45;&gt;A2</title>
<path fill="none" stroke="#000000" d="M135,-650.4551C135,-642.3828 135,-632.6764 135,-623.6817"/>
<polygon fill="#000000" stroke="#000000" points="135,-613.5904 139.5001,-623.5903 135,-618.5904 135.0001,-623.5904 135.0001,-623.5904 135.0001,-623.5904 135,-618.5904 130.5001,-623.5904 135,-613.5904 135,-613.5904"/>
</g>
<!-- A3 -->
<g id="node4" class="node">
<title>A3</title>
<path fill="none" stroke="#000000" d="M84,-504.5C84,-504.5 114,-504.5 114,-504.5 120,-504.5 126,-510.5 126,-516.5 126,-516.5 126,-528.5 126,-528.5 126,-534.5 120,-540.5 114,-540.5 114,-540.5 84,-540.5 84,-540.5 78,-540.5 72,-534.5 72,-528.5 72,-528.5 72,-516.5 72,-516.5 72,-510.5 78,-504.5 84,-504.5"/>
<text text-anchor="middle" x="98.889" y="-519.5" font-family="Helvetica,sans-Serif" font-size="10.00" fill="#000000">cRd</text>
</g>
<!-- A2&#45;&gt;A3 -->
<g id="edge3" class="edge">
<title>A2&#45;&gt;A3</title>
<path fill="none" stroke="#000000" d="M126.1011,-577.4551C121.9905,-569.1196 117.0205,-559.0416 112.4651,-549.8042"/>
<polygon fill="#000000" stroke="#000000" points="107.9213,-540.5904 116.3802,-547.5687 110.1328,-545.0747 112.3443,-549.5591 112.3443,-549.5591 112.3443,-549.5591 110.1328,-545.0747 108.3083,-551.5494 107.9213,-540.5904 107.9213,-540.5904"/>
</g>
<!-- A4 -->
<g id="node5" class="node">
<title>A4</title>
<path fill="none" stroke="#000000" d="M156,-504.5C156,-504.5 186,-504.5 186,-504.5 192,-504.5 198,-510.5 198,-516.5 198,-516.5 198,-528.5 198,-528.5 198,-534.5 192,-540.5 186,-540.5 186,-540.5 156,-540.5 156,-540.5 150,-540.5 144,-534.5 144,-528.5 144,-528.5 144,-516.5 144,-516.5 144,-510.5 150,-504.5 156,-504.5"/>
<text text-anchor="middle" x="170.889" y="-519.5" font-family="Helvetica,sans-Serif" font-size="10.00" fill="#000000">cRe</text>
</g>
<!-- A2&#45;&gt;A4 -->
<g id="edge4" class="edge">
<title>A2&#45;&gt;A4</title>
<path fill="none" stroke="#000000" d="M143.8989,-577.4551C148.0095,-569.1196 152.9795,-559.0416 157.5349,-549.8042"/>
<polygon fill="#000000" stroke="#000000" points="162.0787,-540.5904 161.6917,-551.5494 159.8672,-545.0747 157.6557,-549.5591 157.6557,-549.5591 157.6557,-549.5591 159.8672,-545.0747 153.6198,-547.5687 162.0787,-540.5904 162.0787,-540.5904"/>
</g>
<!-- A5 -->
<g id="node6" class="node">
<title>A5</title>
<path fill="none" stroke="#000000" d="M12,-431.5C12,-431.5 42,-431.5 42,-431.5 48,-431.5 54,-437.5 54,-443.5 54,-443.5 54,-455.5 54,-455.5 54,-461.5 48,-467.5 42,-467.5 42,-467.5 12,-467.5 12,-467.5 6,-467.5 0,-461.5 0,-455.5 0,-455.5 0,-443.5 0,-443.5 0,-437.5 6,-431.5 12,-431.5"/>
<text text-anchor="middle" x="26.999" y="-446.5" font-family="Helvetica,sans-Serif" font-size="10.00" fill="#000000">cRf</text>
</g>
<!-- A3&#45;&gt;A5 -->
<g id="edge5" class="edge">
<title>A3&#45;&gt;A5</title>
<path fill="none" stroke="#000000" d="M81.2022,-504.4551C72.3752,-495.5054 61.5669,-484.547 51.9307,-474.7769"/>
<polygon fill="#000000" stroke="#000000" points="44.8425,-467.5904 55.0686,-471.5501 48.3536,-471.1502 51.8647,-474.7101 51.8647,-474.7101 51.8647,-474.7101 48.3536,-471.1502 48.6608,-477.87 44.8425,-467.5904 44.8425,-467.5904"/>
</g>
<!-- A6 -->
<g id="node7" class="node">
<title>A6</title>
<path fill="none" stroke="#000000" d="M84,-431.5C84,-431.5 114,-431.5 114,-431.5 120,-431.5 126,-437.5 126,-443.5 126,-443.5 126,-455.5 126,-455.5 126,-461.5 120,-467.5 114,-467.5 114,-467.5 84,-467.5 84,-467.5 78,-467.5 72,-461.5 72,-455.5 72,-455.5 72,-443.5 72,-443.5 72,-437.5 78,-431.5 84,-431.5"/>
<text text-anchor="middle" x="98.889" y="-446.5" font-family="Helvetica,sans-Serif" font-size="10.00" fill="#000000">cRg</text>
</g>
<!-- A3&#45;&gt;A6 -->
<g id="edge6" class="edge">
<title>A3&#45;&gt;A6</title>
<path fill="none" stroke="#000000" d="M99,-504.4551C99,-496.3828 99,-486.6764 99,-477.6817"/>
<polygon fill="#000000" stroke="#000000" points="99,-467.5904 103.5001,-477.5903 99,-472.5904 99.0001,-477.5904 99.0001,-477.5904 99.0001,-477.5904 99,-472.5904 94.5001,-477.5904 99,-467.5904 99,-467.5904"/>
</g>
<!-- A7 -->
<g id="node8" class="node">
<title>A7</title>
<path fill="none" stroke="#000000" d="M156,-431.5C156,-431.5 186,-431.5 186,-431.5 192,-431.5 198,-437.5 198,-443.5 198,-443.5 198,-455.5 198,-455.5 198,-461.5 192,-467.5 186,-467.5 186,-467.5 156,-467.5 156,-467.5 150,-467.5 144,-461.5 144,-455.5 144,-455.5 144,-443.5 144,-443.5 144,-437.5 150,-431.5 156,-431.5"/>
<text text-anchor="middle" x="170.889" y="-446.5" font-family="Helvetica,sans-Serif" font-size="10.00" fill="#000000">cRh</text>
</g>
<!-- A3&#45;&gt;A7 -->
<g id="edge7" class="edge">
<title>A3&#45;&gt;A7</title>
<path fill="none" stroke="#000000" d="M116.7978,-504.4551C125.6248,-495.5054 136.4331,-484.547 146.0693,-474.7769"/>
<polygon fill="#000000" stroke="#000000" points="153.1575,-467.5904 149.3392,-477.87 149.6464,-471.1502 146.1353,-474.7101 146.1353,-474.7101 146.1353,-474.7101 149.6464,-471.1502 142.9314,-471.5501 153.1575,-467.5904 153.1575,-467.5904"/>
</g>
<!-- A8 -->
<g id="node9" class="node">
<title>A8</title>
<path fill="none" stroke="#000000" d="M124,-358.5C124,-358.5 154,-358.5 154,-358.5 160,-358.5 166,-364.5 166,-370.5 166,-370.5 166,-382.5 166,-382.5 166,-388.5 160,-394.5 154,-394.5 154,-394.5 124,-394.5 124,-394.5 118,-394.5 112,-388.5 112,-382.5 112,-382.5 112,-370.5 112,-370.5 112,-364.5 118,-358.5 124,-358.5"/>
<text text-anchor="middle" x="138.719" y="-373.5" font-family="Helvetica,sans-Serif" font-size="10.00" fill="#000000">cRi</text>
</g>
<!-- A7&#45;&gt;A8 -->
<g id="edge8" class="edge">
<title>A7&#45;&gt;A8</title>
<path fill="none" stroke="#000000" d="M163.0899,-431.4551C159.436,-423.1196 155.0182,-413.0416 150.969,-403.8042"/>
<polygon fill="#000000" stroke="#000000" points="146.93,-394.5904 155.0663,-401.9424 148.9374,-399.1697 150.9448,-403.7491 150.9448,-403.7491 150.9448,-403.7491 148.9374,-399.1697 146.8234,-405.5557 146.93,-394.5904 146.93,-394.5904"/>
</g>
<!-- A9 -->
<g id="node10" class="node">
<title>A9</title>
<path fill="none" stroke="#000000" d="M192,-285.5C192,-285.5 222,-285.5 222,-285.5 228,-285.5 234,-291.5 234,-297.5 234,-297.5 234,-309.5 234,-309.5 234,-315.5 228,-321.5 222,-321.5 222,-321.5 192,-321.5 192,-321.5 186,-321.5 180,-315.5 180,-309.5 180,-309.5 180,-297.5 180,-297.5 180,-291.5 186,-285.5 192,-285.5"/>
<text text-anchor="middle" x="206.719" y="-300.5" font-family="Helvetica,sans-Serif" font-size="10.00" fill="#000000">cRj</text>
</g>
<!-- A7&#45;&gt;A9 -->
<g id="edge9" class="edge">
<title>A7&#45;&gt;A9</title>
<path fill="none" stroke="#000000" d="M175.4866,-431.3042C181.6307,-406.3868 192.7248,-361.3938 199.9756,-331.9877"/>
<polygon fill="#000000" stroke="#000000" points="202.4568,-321.9251 204.4318,-332.7117 201.2598,-326.7797 200.0627,-331.6343 200.0627,-331.6343 200.0627,-331.6343 201.2598,-326.7797 195.6936,-330.557 202.4568,-321.9251 202.4568,-321.9251"/>
</g>
<!-- A11 -->
<g id="node12" class="node">
<title>A11</title>
<path fill="none" stroke="#000000" d="M120,-285.5C120,-285.5 150,-285.5 150,-285.5 156,-285.5 162,-291.5 162,-297.5 162,-297.5 162,-309.5 162,-309.5 162,-315.5 156,-321.5 150,-321.5 150,-321.5 120,-321.5 120,-321.5 114,-321.5 108,-315.5 108,-309.5 108,-309.5 108,-297.5 108,-297.5 108,-291.5 114,-285.5 120,-285.5"/>
<text text-anchor="middle" x="134.719" y="-300.5" font-family="Helvetica,sans-Serif" font-size="10.00" fill="#000000">cRl</text>
</g>
<!-- A8&#45;&gt;A11 -->
<g id="edge11" class="edge">
<title>A8&#45;&gt;A11</title>
<path fill="none" stroke="#000000" d="M138.0112,-358.4551C137.5689,-350.3828 137.0371,-340.6764 136.5442,-331.6817"/>
<polygon fill="#000000" stroke="#000000" points="135.9913,-321.5904 141.0317,-331.3291 136.2649,-326.5829 136.5385,-331.5754 136.5385,-331.5754 136.5385,-331.5754 136.2649,-326.5829 132.0452,-331.8216 135.9913,-321.5904 135.9913,-321.5904"/>
</g>
<!-- A10 -->
<g id="node11" class="node">
<title>A10</title>
<path fill="none" stroke="#000000" d="M152,-212.5C152,-212.5 182,-212.5 182,-212.5 188,-212.5 194,-218.5 194,-224.5 194,-224.5 194,-236.5 194,-236.5 194,-242.5 188,-248.5 182,-248.5 182,-248.5 152,-248.5 152,-248.5 146,-248.5 140,-242.5 140,-236.5 140,-236.5 140,-224.5 140,-224.5 140,-218.5 146,-212.5 152,-212.5"/>
<text text-anchor="middle" x="166.6095" y="-227.5" font-family="Helvetica,sans-Serif" font-size="10.00" fill="#000000">cRk</text>
</g>
<!-- A9&#45;&gt;A10 -->
<g id="edge10" class="edge">
<title>A9&#45;&gt;A10</title>
<path fill="none" stroke="#000000" d="M197.1124,-285.4551C192.4969,-277.0319 186.9064,-266.8292 181.8015,-257.5128"/>
<polygon fill="#000000" stroke="#000000" points="176.9125,-248.5904 185.6643,-255.1977 179.3152,-252.9752 181.7179,-257.3601 181.7179,-257.3601 181.7179,-257.3601 179.3152,-252.9752 177.7715,-259.5226 176.9125,-248.5904 176.9125,-248.5904"/>
</g>
<!-- A10&#45;&gt;A11 -->
<g id="edge12" class="edge">
<title>A10&#45;&gt;A11</title>
<path fill="none" stroke="#000000" d="M164.9902,-248.5904C162.1259,-257.0199 157.8598,-267.2241 153.3601,-276.5374"/>
<polygon fill="#000000" stroke="#000000" points="148.8258,-285.4551 149.347,-274.5015 151.092,-280.9981 153.3582,-276.5411 153.3582,-276.5411 153.3582,-276.5411 151.092,-280.9981 157.3695,-278.5807 148.8258,-285.4551 148.8258,-285.4551"/>
</g>
<!-- A12 -->
<g id="node13" class="node">
<title>A12</title>
<path fill="none" stroke="#000000" d="M157,-139.5C157,-139.5 187,-139.5 187,-139.5 193,-139.5 199,-145.5 199,-151.5 199,-151.5 199,-163.5 199,-163.5 199,-169.5 193,-175.5 187,-175.5 187,-175.5 157,-175.5 157,-175.5 151,-175.5 145,-169.5 145,-163.5 145,-163.5 145,-151.5 145,-151.5 145,-145.5 151,-139.5 157,-139.5"/>
<text text-anchor="middle" x="171.774" y="-154.5" font-family="Helvetica,sans-Serif" font-size="10.00" fill="#000000">cRm</text>
</g>
<!-- A10&#45;&gt;A12 -->
<g id="edge14" class="edge">
<title>A10&#45;&gt;A12</title>
<path fill="none" stroke="#000000" d="M168.236,-212.4551C168.7888,-204.3828 169.4537,-194.6764 170.0697,-185.6817"/>
<polygon fill="#000000" stroke="#000000" points="170.7609,-175.5904 174.567,-185.8745 170.4192,-180.5787 170.0775,-185.567 170.0775,-185.567 170.0775,-185.567 170.4192,-180.5787 165.588,-185.2594 170.7609,-175.5904 170.7609,-175.5904"/>
</g>
<!-- A11&#45;&gt;A10 -->
<g id="edge13" class="edge">
<title>A11&#45;&gt;A10</title>
<path fill="none" stroke="#000000" d="M136.9944,-285.4551C139.8536,-277.0319 144.1168,-266.8292 148.6157,-257.5128"/>
<polygon fill="#000000" stroke="#000000" points="153.1498,-248.5904 152.6311,-259.544 150.8846,-253.0478 148.6194,-257.5053 148.6194,-257.5053 148.6194,-257.5053 150.8846,-253.0478 144.6077,-255.4667 153.1498,-248.5904 153.1498,-248.5904"/>
</g>
<!-- A13 -->
<g id="node14" class="node">
<title>A13</title>
<path fill="none" stroke="#000000" d="M85,-139.5C85,-139.5 115,-139.5 115,-139.5 121,-139.5 127,-145.5 127,-151.5 127,-151.5 127,-163.5 127,-163.5 127,-169.5 121,-175.5 115,-175.5 115,-175.5 85,-175.5 85,-175.5 79,-175.5 73,-169.5 73,-163.5 73,-163.5 73,-151.5 73,-151.5 73,-145.5 79,-139.5 85,-139.5"/>
<text text-anchor="middle" x="99.889" y="-154.5" font-family="Helvetica,sans-Serif" font-size="10.00" fill="#000000">cRn</text>
</g>
<!-- A11&#45;&gt;A13 -->
<g id="edge15" class="edge">
<title>A11&#45;&gt;A13</title>
<path fill="none" stroke="#000000" d="M130.638,-285.3042C124.6646,-260.3868 113.8787,-215.3938 106.8292,-185.9877"/>
<polygon fill="#000000" stroke="#000000" points="104.417,-175.9251 111.1243,-184.6005 105.5826,-180.7874 106.7483,-185.6496 106.7483,-185.6496 106.7483,-185.6496 105.5826,-180.7874 102.3722,-186.6987 104.417,-175.9251 104.417,-175.9251"/>
</g>
<!-- A14 -->
<g id="node15" class="node">
<title>A14</title>
<path fill="none" stroke="#000000" d="M121,-66.5C121,-66.5 151,-66.5 151,-66.5 157,-66.5 163,-72.5 163,-78.5 163,-78.5 163,-90.5 163,-90.5 163,-96.5 157,-102.5 151,-102.5 151,-102.5 121,-102.5 121,-102.5 115,-102.5 109,-96.5 109,-90.5 109,-90.5 109,-78.5 109,-78.5 109,-72.5 115,-66.5 121,-66.5"/>
<text text-anchor="middle" x="135.889" y="-81.5" font-family="Helvetica,sans-Serif" font-size="10.00" fill="#000000">cRo</text>
</g>
<!-- A12&#45;&gt;A14 -->
<g id="edge16" class="edge">
<title>A12&#45;&gt;A14</title>
<path fill="none" stroke="#000000" d="M163.1011,-139.4551C158.9905,-131.1196 154.0205,-121.0416 149.4651,-111.8042"/>
<polygon fill="#000000" stroke="#000000" points="144.9213,-102.5904 153.3802,-109.5687 147.1328,-107.0747 149.3443,-111.5591 149.3443,-111.5591 149.3443,-111.5591 147.1328,-107.0747 145.3083,-113.5494 144.9213,-102.5904 144.9213,-102.5904"/>
</g>
<!-- A13&#45;&gt;A14 -->
<g id="edge17" class="edge">
<title>A13&#45;&gt;A14</title>
<path fill="none" stroke="#000000" d="M108.8989,-139.4551C113.0095,-131.1196 117.9795,-121.0416 122.5349,-111.8042"/>
<polygon fill="#000000" stroke="#000000" points="127.0787,-102.5904 126.6917,-113.5494 124.8672,-107.0747 122.6557,-111.5591 122.6557,-111.5591 122.6557,-111.5591 124.8672,-107.0747 118.6198,-109.5687 127.0787,-102.5904 127.0787,-102.5904"/>
</g>
<!-- A15 -->
<g id="node16" class="node">
<title>A15</title>
<ellipse fill="none" stroke="#000000" cx="136" cy="-15" rx="11" ry="11"/>
<ellipse fill="none" stroke="#000000" cx="136" cy="-15" rx="15" ry="15"/>
</g>
<!-- A14&#45;&gt;A15 -->
<g id="edge18" class="edge">
<title>A14&#45;&gt;A15</title>
<path fill="none" stroke="#000000" d="M136,-66.2397C136,-58.3218 136,-48.9169 136,-40.3394"/>
<polygon fill="#000000" stroke="#000000" points="136,-30.0912 140.5001,-40.0911 136,-35.0912 136.0001,-40.0912 136.0001,-40.0912 136.0001,-40.0912 136,-35.0912 131.5001,-40.0912 136,-30.0912 136,-30.0912"/>
</g>
</g>
</svg>
