<?xml version="1.0" encoding="UTF-8" standalone="no"?>
<!DOCTYPE svg PUBLIC "-//W3C//DTD SVG 1.1//EN"
 "http://www.w3.org/Graphics/SVG/1.1/DTD/svg11.dtd">
<!-- Generated by graphviz version 2.40.1 (20161225.0304)
 -->
<!-- Title: G Pages: 1 -->
<svg width="128pt" height="267pt"
 viewBox="0.00 0.00 127.98 267.00" xmlns="http://www.w3.org/2000/svg" xmlns:xlink="http://www.w3.org/1999/xlink">
<g id="graph0" class="graph" transform="scale(1 1) rotate(0) translate(4 263)">
<title>G</title>
<!-- A0 -->
<g id="node1" class="node">
<title>A0</title>
<ellipse fill="none" stroke="#000000" cx="49.979" cy="-248" rx="11" ry="11"/>
</g>
<!-- A1 -->
<g id="node2" class="node">
<title>A1</title>
<path fill="none" stroke="#000000" d="M12,-163.5C12,-163.5 87.958,-163.5 87.958,-163.5 93.958,-163.5 99.958,-169.5 99.958,-175.5 99.958,-175.5 99.958,-187.5 99.958,-187.5 99.958,-193.5 93.958,-199.5 87.958,-199.5 87.958,-199.5 12,-199.5 12,-199.5 6,-199.5 0,-193.5 0,-187.5 0,-187.5 0,-175.5 0,-175.5 0,-169.5 6,-163.5 12,-163.5"/>
<text text-anchor="middle" x="49.979" y="-178.5" font-family="Helvetica,sans-Serif" font-size="10.00" fill="#000000">~~∃x(~Fx v Gx)</text>
</g>
<!-- A0&#45;&gt;A1 -->
<g id="edge1" class="edge">
<title>A0&#45;&gt;A1</title>
<path fill="none" stroke="#000000" d="M49.979,-236.7192C49.979,-229.3421 49.979,-219.3535 49.979,-209.8996"/>
<polygon fill="#000000" stroke="#000000" points="49.979,-199.6206 54.4791,-209.6206 49.979,-204.6206 49.9791,-209.6206 49.9791,-209.6206 49.9791,-209.6206 49.979,-204.6206 45.4791,-209.6207 49.979,-199.6206 49.979,-199.6206"/>
</g>
<!-- A2 -->
<g id="node3" class="node">
<title>A2</title>
<path fill="none" stroke="#000000" d="M14.085,-78.5C14.085,-78.5 85.873,-78.5 85.873,-78.5 91.873,-78.5 97.873,-84.5 97.873,-90.5 97.873,-90.5 97.873,-102.5 97.873,-102.5 97.873,-108.5 91.873,-114.5 85.873,-114.5 85.873,-114.5 14.085,-114.5 14.085,-114.5 8.085,-114.5 2.085,-108.5 2.085,-102.5 2.085,-102.5 2.085,-90.5 2.085,-90.5 2.085,-84.5 8.085,-78.5 14.085,-78.5"/>
<text text-anchor="middle" x="49.979" y="-93.5" font-family="Helvetica,sans-Serif" font-size="10.00" fill="#000000">~∃x(Fx &amp; ~Gx)</text>
</g>
<!-- A1&#45;&gt;A2 -->
<g id="edge2" class="edge">
<title>A1&#45;&gt;A2</title>
<path fill="none" stroke="#000000" d="M49.979,-163.4737C49.979,-152.2043 49.979,-137.4524 49.979,-124.6627"/>
<polygon fill="#000000" stroke="#000000" points="49.979,-114.5003 54.4791,-124.5003 49.979,-119.5003 49.9791,-124.5003 49.9791,-124.5003 49.9791,-124.5003 49.979,-119.5003 45.4791,-124.5004 49.979,-114.5003 49.979,-114.5003"/>
<text text-anchor="middle" x="84.9775" y="-136" font-family="Helvetica,sans-Serif" font-size="10.00" fill="#000000">demorgan&#39;s law</text>
</g>
<!-- A3 -->
<g id="node4" class="node">
<title>A3</title>
<ellipse fill="none" stroke="#000000" cx="49.979" cy="-15" rx="11" ry="11"/>
<ellipse fill="none" stroke="#000000" cx="49.979" cy="-15" rx="15" ry="15"/>
</g>
<!-- A2&#45;&gt;A3 -->
<g id="edge3" class="edge">
<title>A2&#45;&gt;A3</title>
<path fill="none" stroke="#000000" d="M49.979,-78.4125C49.979,-67.1685 49.979,-52.5493 49.979,-40.1818"/>
<polygon fill="#000000" stroke="#000000" points="49.979,-30.0344 54.4791,-40.0344 49.979,-35.0344 49.9791,-40.0344 49.9791,-40.0344 49.9791,-40.0344 49.979,-35.0344 45.4791,-40.0345 49.979,-30.0344 49.979,-30.0344"/>
<text text-anchor="middle" x="55.5375" y="-51" font-family="Helvetica,sans-Serif" font-size="10.00" fill="#000000">⊥</text>
</g>
</g>
</svg>
