<?xml version="1.0" encoding="UTF-8" standalone="no"?>
<!DOCTYPE svg PUBLIC "-//W3C//DTD SVG 1.1//EN"
 "http://www.w3.org/Graphics/SVG/1.1/DTD/svg11.dtd">
<!-- Generated by graphviz version 2.40.1 (20161225.0304)
 -->
<!-- Title: G Pages: 1 -->
<svg width="104pt" height="192pt"
 viewBox="0.00 0.00 103.89 192.00" xmlns="http://www.w3.org/2000/svg" xmlns:xlink="http://www.w3.org/1999/xlink">
<g id="graph0" class="graph" transform="scale(1 1) rotate(0) translate(4 188)">
<title>G</title>
<!-- A0 -->
<g id="node1" class="node">
<title>A0</title>
<ellipse fill="none" stroke="#000000" cx="27" cy="-173" rx="11" ry="11"/>
</g>
<!-- A1 -->
<g id="node2" class="node">
<title>A1</title>
<path fill="none" stroke="#000000" d="M42,-114C42,-114 12,-114 12,-114 6,-114 0,-108 0,-102 0,-102 0,-90 0,-90 0,-84 6,-78 12,-78 12,-78 42,-78 42,-78 48,-78 54,-84 54,-90 54,-90 54,-102 54,-102 54,-108 48,-114 42,-114"/>
<text text-anchor="middle" x="27" y="-93" font-family="Helvetica,sans-Serif" font-size="10.00" fill="#000000">{B}</text>
</g>
<!-- A0&#45;&gt;A1 -->
<g id="edge1" class="edge">
<title>A0&#45;&gt;A1</title>
<path fill="none" stroke="#000000" d="M27,-161.9678C27,-152.124 27,-137.2813 27,-124.1664"/>
<polygon fill="#000000" stroke="#000000" points="27,-114.1474 31.5001,-124.1473 27,-119.1474 27.0001,-124.1474 27.0001,-124.1474 27.0001,-124.1474 27,-119.1474 22.5001,-124.1474 27,-114.1474 27,-114.1474"/>
<text text-anchor="middle" x="38.9475" y="-135" font-family="Helvetica,sans-Serif" font-size="10.00" fill="#000000">[aRb]</text>
</g>
<!-- A1&#45;&gt;A1 -->
<g id="edge2" class="edge">
<title>A1&#45;&gt;A1</title>
<path fill="none" stroke="#000000" d="M54.2408,-103.8673C64.0239,-104.0365 72,-101.4141 72,-96 72,-92.7008 69.0382,-90.4382 64.5105,-89.2123"/>
<polygon fill="#000000" stroke="#000000" points="54.2408,-88.1327 64.6565,-84.703 59.2134,-88.6555 64.186,-89.1783 64.186,-89.1783 64.186,-89.1783 59.2134,-88.6555 63.7154,-93.6536 54.2408,-88.1327 54.2408,-88.1327"/>
<text text-anchor="middle" x="83.9475" y="-93" font-family="Helvetica,sans-Serif" font-size="10.00" fill="#000000">[aRb]</text>
</g>
<!-- A2 -->
<g id="node3" class="node">
<title>A2</title>
<ellipse fill="none" stroke="#000000" cx="27" cy="-15" rx="11" ry="11"/>
<ellipse fill="none" stroke="#000000" cx="27" cy="-15" rx="15" ry="15"/>
</g>
<!-- A1&#45;&gt;A2 -->
<g id="edge3" class="edge">
<title>A1&#45;&gt;A2</title>
<path fill="none" stroke="#000000" d="M27,-77.6198C27,-66.6129 27,-52.4617 27,-40.3973"/>
<polygon fill="#000000" stroke="#000000" points="27,-30.0545 31.5001,-40.0545 27,-35.0545 27.0001,-40.0545 27.0001,-40.0545 27.0001,-40.0545 27,-35.0545 22.5001,-40.0546 27,-30.0545 27,-30.0545"/>
<text text-anchor="middle" x="38.9475" y="-51" font-family="Helvetica,sans-Serif" font-size="10.00" fill="#000000">[aRb]</text>
</g>
</g>
</svg>
