<?xml version="1.0" encoding="UTF-8" standalone="no"?>
<!DOCTYPE svg PUBLIC "-//W3C//DTD SVG 1.1//EN"
 "http://www.w3.org/Graphics/SVG/1.1/DTD/svg11.dtd">
<!-- Generated by graphviz version 2.40.1 (20161225.0304)
 -->
<!-- Title: G Pages: 1 -->
<svg width="62pt" height="315pt"
 viewBox="0.00 0.00 62.00 315.00" xmlns="http://www.w3.org/2000/svg" xmlns:xlink="http://www.w3.org/1999/xlink">
<g id="graph0" class="graph" transform="scale(1 1) rotate(0) translate(4 311)">
<title>G</title>
<!-- A0 -->
<g id="node1" class="node">
<title>A0</title>
<ellipse fill="none" stroke="#000000" cx="27" cy="-296" rx="11" ry="11"/>
</g>
<!-- A1 -->
<g id="node2" class="node">
<title>A1</title>
<path fill="none" stroke="#000000" d="M12,-212.5C12,-212.5 42,-212.5 42,-212.5 48,-212.5 54,-218.5 54,-224.5 54,-224.5 54,-236.5 54,-236.5 54,-242.5 48,-248.5 42,-248.5 42,-248.5 12,-248.5 12,-248.5 6,-248.5 0,-242.5 0,-236.5 0,-236.5 0,-224.5 0,-224.5 0,-218.5 6,-212.5 12,-212.5"/>
<text text-anchor="middle" x="26.7795" y="-227.5" font-family="Helvetica,sans-Serif" font-size="10.00" fill="#000000">a</text>
</g>
<!-- A0&#45;&gt;A1 -->
<g id="edge1" class="edge">
<title>A0&#45;&gt;A1</title>
<path fill="none" stroke="#000000" d="M27,-284.8888C27,-277.6757 27,-267.9278 27,-258.6765"/>
<polygon fill="#000000" stroke="#000000" points="27,-248.6041 31.5001,-258.6041 27,-253.6041 27.0001,-258.6041 27.0001,-258.6041 27.0001,-258.6041 27,-253.6041 22.5001,-258.6042 27,-248.6041 27,-248.6041"/>
</g>
<!-- A2 -->
<g id="node3" class="node">
<title>A2</title>
<path fill="none" stroke="#000000" d="M12,-139.5C12,-139.5 42,-139.5 42,-139.5 48,-139.5 54,-145.5 54,-151.5 54,-151.5 54,-163.5 54,-163.5 54,-169.5 48,-175.5 42,-175.5 42,-175.5 12,-175.5 12,-175.5 6,-175.5 0,-169.5 0,-163.5 0,-163.5 0,-151.5 0,-151.5 0,-145.5 6,-139.5 12,-139.5"/>
<text text-anchor="middle" x="26.6095" y="-154.5" font-family="Helvetica,sans-Serif" font-size="10.00" fill="#000000">R</text>
</g>
<!-- A1&#45;&gt;A2 -->
<g id="edge2" class="edge">
<title>A1&#45;&gt;A2</title>
<path fill="none" stroke="#000000" d="M27,-212.4551C27,-204.3828 27,-194.6764 27,-185.6817"/>
<polygon fill="#000000" stroke="#000000" points="27,-175.5904 31.5001,-185.5903 27,-180.5904 27.0001,-185.5904 27.0001,-185.5904 27.0001,-185.5904 27,-180.5904 22.5001,-185.5904 27,-175.5904 27,-175.5904"/>
</g>
<!-- A3 -->
<g id="node4" class="node">
<title>A3</title>
<path fill="none" stroke="#000000" d="M12,-66.5C12,-66.5 42,-66.5 42,-66.5 48,-66.5 54,-72.5 54,-78.5 54,-78.5 54,-90.5 54,-90.5 54,-96.5 48,-102.5 42,-102.5 42,-102.5 12,-102.5 12,-102.5 6,-102.5 0,-96.5 0,-90.5 0,-90.5 0,-78.5 0,-78.5 0,-72.5 6,-66.5 12,-66.5"/>
<text text-anchor="middle" x="26.7795" y="-81.5" font-family="Helvetica,sans-Serif" font-size="10.00" fill="#000000">b</text>
</g>
<!-- A2&#45;&gt;A3 -->
<g id="edge3" class="edge">
<title>A2&#45;&gt;A3</title>
<path fill="none" stroke="#000000" d="M27,-139.4551C27,-131.3828 27,-121.6764 27,-112.6817"/>
<polygon fill="#000000" stroke="#000000" points="27,-102.5904 31.5001,-112.5903 27,-107.5904 27.0001,-112.5904 27.0001,-112.5904 27.0001,-112.5904 27,-107.5904 22.5001,-112.5904 27,-102.5904 27,-102.5904"/>
</g>
<!-- A4 -->
<g id="node5" class="node">
<title>A4</title>
<ellipse fill="none" stroke="#000000" cx="27" cy="-15" rx="11" ry="11"/>
<ellipse fill="none" stroke="#000000" cx="27" cy="-15" rx="15" ry="15"/>
</g>
<!-- A3&#45;&gt;A4 -->
<g id="edge4" class="edge">
<title>A3&#45;&gt;A4</title>
<path fill="none" stroke="#000000" d="M27,-66.2397C27,-58.3218 27,-48.9169 27,-40.3394"/>
<polygon fill="#000000" stroke="#000000" points="27,-30.0912 31.5001,-40.0911 27,-35.0912 27.0001,-40.0912 27.0001,-40.0912 27.0001,-40.0912 27,-35.0912 22.5001,-40.0912 27,-30.0912 27,-30.0912"/>
</g>
</g>
</svg>
