<?xml version="1.0" encoding="UTF-8" standalone="no"?>
<!DOCTYPE svg PUBLIC "-//W3C//DTD SVG 1.1//EN"
 "http://www.w3.org/Graphics/SVG/1.1/DTD/svg11.dtd">
<!-- Generated by graphviz version 2.40.1 (20161225.0304)
 -->
<!-- Title: G Pages: 1 -->
<svg width="312pt" height="108pt"
 viewBox="0.00 0.00 312.25 108.00" xmlns="http://www.w3.org/2000/svg" xmlns:xlink="http://www.w3.org/1999/xlink">
<g id="graph0" class="graph" transform="scale(1 1) rotate(0) translate(4 104)">
<title>G</title>
<!-- A0 -->
<g id="node1" class="node">
<title>A0</title>
<ellipse fill="none" stroke="#000000" cx="126.1427" cy="-89" rx="11" ry="11"/>
</g>
<!-- A1 -->
<g id="node2" class="node">
<title>A1</title>
<ellipse fill="none" stroke="#000000" cx="126.1427" cy="-15" rx="11" ry="11"/>
<ellipse fill="none" stroke="#000000" cx="126.1427" cy="-15" rx="15" ry="15"/>
</g>
<!-- A0&#45;&gt;A1 -->
<g id="edge1" class="edge">
<title>A0&#45;&gt;A1</title>
<path fill="none" stroke="#000000" d="M115.0451,-88.1149C87.3694,-85.6546 16.5102,-77.7149 2.4687,-60 -.8442,-55.8204 -.7802,-52.2295 2.4687,-48 14.3879,-32.4834 68.427,-22.6992 101.0007,-18.103"/>
<polygon fill="#000000" stroke="#000000" points="111.1326,-16.7424 101.8205,-22.5334 106.1771,-17.4079 101.2216,-18.0734 101.2216,-18.0734 101.2216,-18.0734 106.1771,-17.4079 100.6226,-13.6134 111.1326,-16.7424 111.1326,-16.7424"/>
<text text-anchor="middle" x="53.9797" y="-51" font-family="Helvetica,sans-Serif" font-size="10.00" fill="#000000">[TELEPHONE_MODE]</text>
</g>
<!-- A0&#45;&gt;A1 -->
<g id="edge2" class="edge">
<title>A0&#45;&gt;A1</title>
<path fill="none" stroke="#000000" d="M126.1427,-77.761C126.1427,-67.8425 126.1427,-53.0209 126.1427,-40.2715"/>
<polygon fill="#000000" stroke="#000000" points="126.1427,-30.2025 130.6428,-40.2025 126.1427,-35.2025 126.1428,-40.2025 126.1428,-40.2025 126.1428,-40.2025 126.1427,-35.2025 121.6428,-40.2026 126.1427,-30.2025 126.1427,-30.2025"/>
<text text-anchor="middle" x="167.5312" y="-51" font-family="Helvetica,sans-Serif" font-size="10.00" fill="#000000">[SEARCH_MODE]</text>
</g>
<!-- A0&#45;&gt;A1 -->
<g id="edge3" class="edge">
<title>A0&#45;&gt;A1</title>
<path fill="none" stroke="#000000" d="M137.0089,-86.8654C157.6962,-82.5571 201.4574,-72.1869 210.1427,-60 226.8914,-36.499 181.816,-24.1317 151.392,-18.6365"/>
<polygon fill="#000000" stroke="#000000" points="141.3671,-16.9724 151.969,-14.1708 146.2996,-17.7912 151.2321,-18.61 151.2321,-18.61 151.2321,-18.61 146.2996,-17.7912 150.4952,-23.0493 141.3671,-16.9724 141.3671,-16.9724"/>
<text text-anchor="middle" x="258.6957" y="-51" font-family="Helvetica,sans-Serif" font-size="10.00" fill="#000000">[WEATHER_MODE]</text>
</g>
</g>
</svg>
