<?xml version="1.0" encoding="UTF-8" standalone="no"?>
<!DOCTYPE svg PUBLIC "-//W3C//DTD SVG 1.1//EN"
 "http://www.w3.org/Graphics/SVG/1.1/DTD/svg11.dtd">
<!-- Generated by graphviz version 2.40.1 (20161225.0304)
 -->
<!-- Title: G Pages: 1 -->
<svg width="669pt" height="521pt"
 viewBox="0.00 0.00 669.09 521.00" xmlns="http://www.w3.org/2000/svg" xmlns:xlink="http://www.w3.org/1999/xlink">
<g id="graph0" class="graph" transform="scale(1 1) rotate(0) translate(4 517)">
<title>G</title>
<!-- A0 -->
<g id="node1" class="node">
<title>A0</title>
<ellipse fill="none" stroke="#000000" cx="272.091" cy="-437" rx="11" ry="11"/>
</g>
<!-- A1 -->
<g id="node2" class="node">
<title>A1</title>
<path fill="none" stroke="#000000" d="M12,-287.5C12,-287.5 50.182,-287.5 50.182,-287.5 56.182,-287.5 62.182,-293.5 62.182,-299.5 62.182,-299.5 62.182,-311.5 62.182,-311.5 62.182,-317.5 56.182,-323.5 50.182,-323.5 50.182,-323.5 12,-323.5 12,-323.5 6,-323.5 0,-317.5 0,-311.5 0,-311.5 0,-299.5 0,-299.5 0,-293.5 6,-287.5 12,-287.5"/>
<text text-anchor="middle" x="31.091" y="-302.5" font-family="Helvetica,sans-Serif" font-size="10.00" fill="#000000">P → ~Q</text>
</g>
<!-- A0&#45;&gt;A1 -->
<g id="edge1" class="edge">
<title>A0&#45;&gt;A1</title>
<path fill="none" stroke="#000000" d="M262.345,-431.6822C230.5811,-414.3504 128.797,-358.8126 71.4158,-327.503"/>
<polygon fill="#000000" stroke="#000000" points="62.6053,-322.6955 73.539,-323.5352 66.9944,-325.0905 71.3835,-327.4854 71.3835,-327.4854 71.3835,-327.4854 66.9944,-325.0905 69.2281,-331.4356 62.6053,-322.6955 62.6053,-322.6955"/>
</g>
<!-- A2 -->
<g id="node3" class="node">
<title>A2</title>
<path fill="none" stroke="#000000" d="M92.091,-287.5C92.091,-287.5 122.091,-287.5 122.091,-287.5 128.091,-287.5 134.091,-293.5 134.091,-299.5 134.091,-299.5 134.091,-311.5 134.091,-311.5 134.091,-317.5 128.091,-323.5 122.091,-323.5 122.091,-323.5 92.091,-323.5 92.091,-323.5 86.091,-323.5 80.091,-317.5 80.091,-311.5 80.091,-311.5 80.091,-299.5 80.091,-299.5 80.091,-293.5 86.091,-287.5 92.091,-287.5"/>
<text text-anchor="middle" x="106.9" y="-302.5" font-family="Helvetica,sans-Serif" font-size="10.00" fill="#000000">~Q</text>
</g>
<!-- A0&#45;&gt;A2 -->
<g id="edge2" class="edge">
<title>A0&#45;&gt;A2</title>
<path fill="none" stroke="#000000" d="M262.8445,-430.4391C241.9333,-415.5055 189.5967,-377.5884 148.091,-343 143.4386,-339.123 138.6022,-334.8922 133.952,-330.7144"/>
<polygon fill="#000000" stroke="#000000" points="126.367,-323.8051 136.7901,-327.2125 130.0634,-327.1722 133.7597,-330.5392 133.7597,-330.5392 133.7597,-330.5392 130.0634,-327.1722 130.7294,-333.866 126.367,-323.8051 126.367,-323.8051"/>
</g>
<!-- A5 -->
<g id="node6" class="node">
<title>A5</title>
<path fill="none" stroke="#000000" d="M201.7535,-287.5C201.7535,-287.5 232.4285,-287.5 232.4285,-287.5 238.4285,-287.5 244.4285,-293.5 244.4285,-299.5 244.4285,-299.5 244.4285,-311.5 244.4285,-311.5 244.4285,-317.5 238.4285,-323.5 232.4285,-323.5 232.4285,-323.5 201.7535,-323.5 201.7535,-323.5 195.7535,-323.5 189.7535,-317.5 189.7535,-311.5 189.7535,-311.5 189.7535,-299.5 189.7535,-299.5 189.7535,-293.5 195.7535,-287.5 201.7535,-287.5"/>
<text text-anchor="middle" x="217.091" y="-302.5" font-family="Helvetica,sans-Serif" font-size="10.00" fill="#000000">P &amp; Q</text>
</g>
<!-- A0&#45;&gt;A5 -->
<g id="edge6" class="edge">
<title>A0&#45;&gt;A5</title>
<path fill="none" stroke="#000000" d="M267.7752,-426.6814C259.4026,-406.6632 240.7081,-361.9665 228.5139,-332.8111"/>
<polygon fill="#000000" stroke="#000000" points="224.652,-323.5776 232.6621,-331.0667 226.5813,-328.1904 228.5106,-332.8031 228.5106,-332.8031 228.5106,-332.8031 226.5813,-328.1904 224.3591,-334.5395 224.652,-323.5776 224.652,-323.5776"/>
</g>
<!-- A6 -->
<g id="node7" class="node">
<title>A6</title>
<path fill="none" stroke="#000000" d="M140.091,-177.5C140.091,-177.5 170.091,-177.5 170.091,-177.5 176.091,-177.5 182.091,-183.5 182.091,-189.5 182.091,-189.5 182.091,-201.5 182.091,-201.5 182.091,-207.5 176.091,-213.5 170.091,-213.5 170.091,-213.5 140.091,-213.5 140.091,-213.5 134.091,-213.5 128.091,-207.5 128.091,-201.5 128.091,-201.5 128.091,-189.5 128.091,-189.5 128.091,-183.5 134.091,-177.5 140.091,-177.5"/>
<text text-anchor="middle" x="154.9255" y="-192.5" font-family="Helvetica,sans-Serif" font-size="10.00" fill="#000000">P</text>
</g>
<!-- A0&#45;&gt;A6 -->
<g id="edge15" class="edge">
<title>A0&#45;&gt;A6</title>
<path fill="none" stroke="#000000" d="M263.7331,-429.4372C245.5624,-412.4884 202.3871,-369.3764 181.091,-324 165.9624,-291.7649 159.6144,-250.9387 156.9651,-224.0603"/>
<polygon fill="#000000" stroke="#000000" points="156.0674,-213.8038 161.4222,-223.3733 156.5034,-218.7848 156.9394,-223.7657 156.9394,-223.7657 156.9394,-223.7657 156.5034,-218.7848 152.4565,-224.1581 156.0674,-213.8038 156.0674,-213.8038"/>
</g>
<!-- A8 -->
<g id="node9" class="node">
<title>A8</title>
<path fill="none" stroke="#000000" d="M319.6685,-232.5C319.6685,-232.5 354.5135,-232.5 354.5135,-232.5 360.5135,-232.5 366.5135,-238.5 366.5135,-244.5 366.5135,-244.5 366.5135,-256.5 366.5135,-256.5 366.5135,-262.5 360.5135,-268.5 354.5135,-268.5 354.5135,-268.5 319.6685,-268.5 319.6685,-268.5 313.6685,-268.5 307.6685,-262.5 307.6685,-256.5 307.6685,-256.5 307.6685,-244.5 307.6685,-244.5 307.6685,-238.5 313.6685,-232.5 319.6685,-232.5"/>
<text text-anchor="middle" x="337.091" y="-247.5" font-family="Helvetica,sans-Serif" font-size="10.00" fill="#000000">P v ~Q</text>
</g>
<!-- A0&#45;&gt;A8 -->
<g id="edge11" class="edge">
<title>A0&#45;&gt;A8</title>
<path fill="none" stroke="#000000" d="M274.5032,-426.0464C277.888,-411.1584 284.4912,-383.7785 292.091,-361 301.6987,-332.2034 315.054,-300.1633 324.7172,-278.0309"/>
<polygon fill="#000000" stroke="#000000" points="328.8706,-268.6064 328.9556,-279.572 326.8542,-273.1818 324.8378,-277.7572 324.8378,-277.7572 324.8378,-277.7572 326.8542,-273.1818 320.7199,-275.9425 328.8706,-268.6064 328.8706,-268.6064"/>
</g>
<!-- A10 -->
<g id="node11" class="node">
<title>A10</title>
<path fill="none" stroke="#000000" d="M248.9195,-232.5C248.9195,-232.5 281.2625,-232.5 281.2625,-232.5 287.2625,-232.5 293.2625,-238.5 293.2625,-244.5 293.2625,-244.5 293.2625,-256.5 293.2625,-256.5 293.2625,-262.5 287.2625,-268.5 281.2625,-268.5 281.2625,-268.5 248.9195,-268.5 248.9195,-268.5 242.9195,-268.5 236.9195,-262.5 236.9195,-256.5 236.9195,-256.5 236.9195,-244.5 236.9195,-244.5 236.9195,-238.5 242.9195,-232.5 248.9195,-232.5"/>
<text text-anchor="middle" x="265.091" y="-247.5" font-family="Helvetica,sans-Serif" font-size="10.00" fill="#000000">P → Q</text>
</g>
<!-- A0&#45;&gt;A10 -->
<g id="edge14" class="edge">
<title>A0&#45;&gt;A10</title>
<path fill="none" stroke="#000000" d="M271.6741,-425.8921C270.6019,-397.3253 267.7228,-320.6195 266.1509,-278.7382"/>
<polygon fill="#000000" stroke="#000000" points="265.7721,-268.6475 270.6441,-278.4716 265.9597,-273.644 266.1473,-278.6404 266.1473,-278.6404 266.1473,-278.6404 265.9597,-273.644 261.6505,-278.8093 265.7721,-268.6475 265.7721,-268.6475"/>
</g>
<!-- A11 -->
<g id="node12" class="node">
<title>A11</title>
<path fill="none" stroke="#000000" d="M347.5635,-122.5C347.5635,-122.5 564.6185,-122.5 564.6185,-122.5 570.6185,-122.5 576.6185,-128.5 576.6185,-134.5 576.6185,-134.5 576.6185,-146.5 576.6185,-146.5 576.6185,-152.5 570.6185,-158.5 564.6185,-158.5 564.6185,-158.5 347.5635,-158.5 347.5635,-158.5 341.5635,-158.5 335.5635,-152.5 335.5635,-146.5 335.5635,-146.5 335.5635,-134.5 335.5635,-134.5 335.5635,-128.5 341.5635,-122.5 347.5635,-122.5"/>
<text text-anchor="middle" x="456.091" y="-137.5" font-family="Helvetica,sans-Serif" font-size="10.00" fill="#000000">∃x((Cx ∧ Rx) ∧∀y((Cy ∧ Ry) → y= x) ∧ Wx)</text>
</g>
<!-- A0&#45;&gt;A11 -->
<g id="edge19" class="edge">
<title>A0&#45;&gt;A11</title>
<path fill="none" stroke="#000000" d="M273.0079,-425.9076C274.7161,-410.3777 279.4458,-381.7339 292.091,-361 298.3177,-350.7902 303.7521,-351.5718 312.091,-343 342.21,-312.04 349.5093,-303.8031 375.091,-269 399.8203,-235.3566 424.9446,-194.1748 440.5157,-167.6488"/>
<polygon fill="#000000" stroke="#000000" points="445.6087,-158.9138 444.4592,-169.8193 443.0902,-163.2332 440.5718,-167.5526 440.5718,-167.5526 440.5718,-167.5526 443.0902,-163.2332 436.6843,-165.286 445.6087,-158.9138 445.6087,-158.9138"/>
</g>
<!-- A12 -->
<g id="node13" class="node">
<title>A12</title>
<path fill="none" stroke="#000000" d="M500.8105,-67.5C500.8105,-67.5 585.3715,-67.5 585.3715,-67.5 591.3715,-67.5 597.3715,-73.5 597.3715,-79.5 597.3715,-79.5 597.3715,-91.5 597.3715,-91.5 597.3715,-97.5 591.3715,-103.5 585.3715,-103.5 585.3715,-103.5 500.8105,-103.5 500.8105,-103.5 494.8105,-103.5 488.8105,-97.5 488.8105,-91.5 488.8105,-91.5 488.8105,-79.5 488.8105,-79.5 488.8105,-73.5 494.8105,-67.5 500.8105,-67.5"/>
<text text-anchor="middle" x="543.091" y="-82.5" font-family="Helvetica,sans-Serif" font-size="10.00" fill="#000000">∀x□Fy → □∀xFy</text>
</g>
<!-- A0&#45;&gt;A12 -->
<g id="edge21" class="edge">
<title>A0&#45;&gt;A12</title>
<path fill="none" stroke="#000000" d="M272.2971,-425.9696C273.1413,-409.9971 276.8287,-380.2403 292.091,-361 302.7169,-347.6046 311.0716,-351.1709 326.091,-343 341.297,-334.7276 345.5995,-333.4683 360.091,-324 461.8152,-257.5364 523.9877,-267.8029 578.091,-159 585.4129,-144.2755 584.2243,-137.2578 578.091,-122 576.5868,-118.258 574.4954,-114.6836 572.0761,-111.3373"/>
<polygon fill="#000000" stroke="#000000" points="565.5341,-103.523 575.4038,-108.302 568.7437,-107.3569 571.9534,-111.1907 571.9534,-111.1907 571.9534,-111.1907 568.7437,-107.3569 568.5029,-114.0794 565.5341,-103.523 565.5341,-103.523"/>
</g>
<!-- A14 -->
<g id="node15" class="node">
<title>A14</title>
<path fill="none" stroke="#000000" d="M619.091,-232.5C619.091,-232.5 649.091,-232.5 649.091,-232.5 655.091,-232.5 661.091,-238.5 661.091,-244.5 661.091,-244.5 661.091,-256.5 661.091,-256.5 661.091,-262.5 655.091,-268.5 649.091,-268.5 649.091,-268.5 619.091,-268.5 619.091,-268.5 613.091,-268.5 607.091,-262.5 607.091,-256.5 607.091,-256.5 607.091,-244.5 607.091,-244.5 607.091,-238.5 613.091,-232.5 619.091,-232.5"/>
<text text-anchor="middle" x="633.81" y="-247.5" font-family="Helvetica,sans-Serif" font-size="10.00" fill="#000000">RR</text>
</g>
<!-- A0&#45;&gt;A14 -->
<g id="edge23" class="edge">
<title>A0&#45;&gt;A14</title>
<path fill="none" stroke="#000000" d="M271.327,-425.84C270.8469,-408.8491 272.7612,-376.8036 292.091,-361 346.2007,-316.7611 551.1806,-386.241 606.091,-343 625.2616,-327.9035 631.6873,-300.1076 633.6617,-278.9128"/>
<polygon fill="#000000" stroke="#000000" points="634.3213,-268.8287 638.159,-279.1011 633.9949,-273.818 633.6685,-278.8073 633.6685,-278.8073 633.6685,-278.8073 633.9949,-273.818 629.1781,-278.5136 634.3213,-268.8287 634.3213,-268.8287"/>
</g>
<!-- A3 -->
<g id="node4" class="node">
<title>A3</title>
<path fill="none" stroke="#000000" d="M65.091,-177.5C65.091,-177.5 95.091,-177.5 95.091,-177.5 101.091,-177.5 107.091,-183.5 107.091,-189.5 107.091,-189.5 107.091,-201.5 107.091,-201.5 107.091,-207.5 101.091,-213.5 95.091,-213.5 95.091,-213.5 65.091,-213.5 65.091,-213.5 59.091,-213.5 53.091,-207.5 53.091,-201.5 53.091,-201.5 53.091,-189.5 53.091,-189.5 53.091,-183.5 59.091,-177.5 65.091,-177.5"/>
<text text-anchor="middle" x="79.845" y="-192.5" font-family="Helvetica,sans-Serif" font-size="10.00" fill="#000000">~P</text>
</g>
<!-- A1&#45;&gt;A3 -->
<g id="edge3" class="edge">
<title>A1&#45;&gt;A3</title>
<path fill="none" stroke="#000000" d="M39.1824,-287.3357C46.9845,-269.8206 58.8956,-243.0815 67.8565,-222.9651"/>
<polygon fill="#000000" stroke="#000000" points="71.9876,-213.6912 72.0291,-224.6571 69.9531,-218.2586 67.9185,-222.8259 67.9185,-222.8259 67.9185,-222.8259 69.9531,-218.2586 63.8079,-220.9948 71.9876,-213.6912 71.9876,-213.6912"/>
</g>
<!-- A2&#45;&gt;A3 -->
<g id="edge4" class="edge">
<title>A2&#45;&gt;A3</title>
<path fill="none" stroke="#000000" d="M102.6325,-287.3357C98.3724,-269.9798 91.8892,-243.5669 86.9675,-223.5154"/>
<polygon fill="#000000" stroke="#000000" points="84.5561,-213.6912 91.3103,-222.3302 85.7481,-218.5471 86.94,-223.403 86.94,-223.403 86.94,-223.403 85.7481,-218.5471 82.5697,-224.4757 84.5561,-213.6912 84.5561,-213.6912"/>
</g>
<!-- A4 -->
<g id="node5" class="node">
<title>A4</title>
<ellipse fill="none" stroke="#000000" cx="276.091" cy="-15" rx="11" ry="11"/>
<ellipse fill="none" stroke="#000000" cx="276.091" cy="-15" rx="15" ry="15"/>
</g>
<!-- A3&#45;&gt;A4 -->
<g id="edge5" class="edge">
<title>A3&#45;&gt;A4</title>
<path fill="none" stroke="#000000" d="M85.1474,-177.2075C93.6188,-149.733 113.174,-97.7631 147.091,-67 177.0657,-39.8125 223.0794,-25.9362 251.2862,-19.5943"/>
<polygon fill="#000000" stroke="#000000" points="261.1543,-17.5206 252.2935,-23.981 256.2612,-18.5489 251.3681,-19.5772 251.3681,-19.5772 251.3681,-19.5772 256.2612,-18.5489 250.4426,-15.1734 261.1543,-17.5206 261.1543,-17.5206"/>
</g>
<!-- A5&#45;&gt;A6 -->
<g id="edge7" class="edge">
<title>A5&#45;&gt;A6</title>
<path fill="none" stroke="#000000" d="M206.853,-287.3357C196.8911,-269.6614 181.6352,-242.5945 170.263,-222.4181"/>
<polygon fill="#000000" stroke="#000000" points="165.3442,-213.6912 174.1746,-220.1932 167.7993,-218.047 170.2544,-222.4028 170.2544,-222.4028 170.2544,-222.4028 167.7993,-218.047 166.3342,-224.6124 165.3442,-213.6912 165.3442,-213.6912"/>
</g>
<!-- A7 -->
<g id="node8" class="node">
<title>A7</title>
<path fill="none" stroke="#000000" d="M224.091,-67.5C224.091,-67.5 254.091,-67.5 254.091,-67.5 260.091,-67.5 266.091,-73.5 266.091,-79.5 266.091,-79.5 266.091,-91.5 266.091,-91.5 266.091,-97.5 260.091,-103.5 254.091,-103.5 254.091,-103.5 224.091,-103.5 224.091,-103.5 218.091,-103.5 212.091,-97.5 212.091,-91.5 212.091,-91.5 212.091,-79.5 212.091,-79.5 212.091,-73.5 218.091,-67.5 224.091,-67.5"/>
<text text-anchor="middle" x="238.9805" y="-82.5" font-family="Helvetica,sans-Serif" font-size="10.00" fill="#000000">Q</text>
</g>
<!-- A5&#45;&gt;A7 -->
<g id="edge8" class="edge">
<title>A5&#45;&gt;A7</title>
<path fill="none" stroke="#000000" d="M218.8914,-287.4965C222.7106,-249.3043 231.6502,-159.908 236.2484,-113.9255"/>
<polygon fill="#000000" stroke="#000000" points="237.2658,-103.7523 240.7483,-114.1505 236.7682,-108.7275 236.2706,-113.7027 236.2706,-113.7027 236.2706,-113.7027 236.7682,-108.7275 231.793,-113.2549 237.2658,-103.7523 237.2658,-103.7523"/>
</g>
<!-- A6&#45;&gt;A4 -->
<g id="edge9" class="edge">
<title>A6&#45;&gt;A4</title>
<path fill="none" stroke="#000000" d="M145.3485,-177.2788C138.5477,-161.9623 132.0088,-139.7848 140.091,-122 162.3943,-72.9222 220.2483,-40.0753 252.8585,-24.8179"/>
<polygon fill="#000000" stroke="#000000" points="262.1012,-20.649 254.8358,-28.8627 257.5434,-22.7048 252.9855,-24.7606 252.9855,-24.7606 252.9855,-24.7606 257.5434,-22.7048 251.1353,-20.6586 262.1012,-20.649 262.1012,-20.649"/>
</g>
<!-- A6&#45;&gt;A7 -->
<g id="edge17" class="edge">
<title>A6&#45;&gt;A7</title>
<path fill="none" stroke="#000000" d="M148.733,-177.2811C144.3887,-161.3459 141.1672,-138.2699 151.99,-122 163.1765,-105.1833 183.7657,-96.0993 202.1182,-91.2"/>
<polygon fill="#000000" stroke="#000000" points="212.0099,-88.8861 203.2978,-95.5456 207.1414,-90.025 202.2728,-91.1639 202.2728,-91.1639 202.2728,-91.1639 207.1414,-90.025 201.2478,-86.7822 212.0099,-88.8861 212.0099,-88.8861"/>
<text text-anchor="middle" x="176.6415" y="-137.5" font-family="Helvetica,sans-Serif" font-size="10.00" fill="#000000">hamm(m.p)</text>
</g>
<!-- A7&#45;&gt;A4 -->
<g id="edge10" class="edge">
<title>A7&#45;&gt;A4</title>
<path fill="none" stroke="#000000" d="M242.6312,-67.3445C246.9642,-57.224 253.5416,-44.623 259.8552,-34.3207"/>
<polygon fill="#000000" stroke="#000000" points="265.5074,-25.6428 263.8204,-36.4782 262.7785,-29.8325 260.0496,-34.0222 260.0496,-34.0222 260.0496,-34.0222 262.7785,-29.8325 256.2789,-31.5663 265.5074,-25.6428 265.5074,-25.6428"/>
</g>
<!-- A7&#45;&gt;A4 -->
<g id="edge18" class="edge">
<title>A7&#45;&gt;A4</title>
<path fill="none" stroke="#000000" d="M254.6077,-67.3445C259.896,-58.8355 265.4383,-48.5731 269.7438,-39.3977"/>
<polygon fill="#000000" stroke="#000000" points="273.8597,-30.0025 273.9688,-40.9678 271.8533,-34.5823 269.847,-39.1621 269.847,-39.1621 269.847,-39.1621 271.8533,-34.5823 265.7251,-37.3563 273.8597,-30.0025 273.8597,-30.0025"/>
</g>
<!-- A9 -->
<g id="node10" class="node">
<title>A9</title>
<path fill="none" stroke="#000000" d="M269.5855,-122.5C269.5855,-122.5 318.5965,-122.5 318.5965,-122.5 324.5965,-122.5 330.5965,-128.5 330.5965,-134.5 330.5965,-134.5 330.5965,-146.5 330.5965,-146.5 330.5965,-152.5 324.5965,-158.5 318.5965,-158.5 318.5965,-158.5 269.5855,-158.5 269.5855,-158.5 263.5855,-158.5 257.5855,-152.5 257.5855,-146.5 257.5855,-146.5 257.5855,-134.5 257.5855,-134.5 257.5855,-128.5 263.5855,-122.5 269.5855,-122.5"/>
<text text-anchor="middle" x="294.091" y="-137.5" font-family="Helvetica,sans-Serif" font-size="10.00" fill="#000000">~(~P &amp; Q)</text>
</g>
<!-- A8&#45;&gt;A9 -->
<g id="edge12" class="edge">
<title>A8&#45;&gt;A9</title>
<path fill="none" stroke="#000000" d="M330.7397,-232.259C325.4526,-217.3142 317.602,-195.6648 310.091,-177 308.9149,-174.0775 307.6511,-171.04 306.3679,-168.0208"/>
<polygon fill="#000000" stroke="#000000" points="302.2867,-158.602 310.3916,-165.9885 304.2746,-163.1898 306.2626,-167.7777 306.2626,-167.7777 306.2626,-167.7777 304.2746,-163.1898 302.1336,-169.5668 302.2867,-158.602 302.2867,-158.602"/>
<text text-anchor="middle" x="356.985" y="-192.5" font-family="Helvetica,sans-Serif" font-size="10.00" fill="#000000">demorgans.law</text>
</g>
<!-- A9&#45;&gt;A4 -->
<g id="edge13" class="edge">
<title>A9&#45;&gt;A4</title>
<path fill="none" stroke="#000000" d="M291.4736,-122.2512C288.365,-100.577 283.1632,-64.309 279.6804,-40.0264"/>
<polygon fill="#000000" stroke="#000000" points="278.2596,-30.1197 284.1338,-39.3795 278.9695,-35.0691 279.6794,-40.0184 279.6794,-40.0184 279.6794,-40.0184 278.9695,-35.0691 275.225,-40.6573 278.2596,-30.1197 278.2596,-30.1197"/>
</g>
<!-- A10&#45;&gt;A7 -->
<g id="edge16" class="edge">
<title>A10&#45;&gt;A7</title>
<path fill="none" stroke="#000000" d="M262.2092,-232.2117C257.6876,-203.5169 248.8921,-147.6996 243.5496,-113.7947"/>
<polygon fill="#000000" stroke="#000000" points="241.9461,-103.6188 247.9479,-112.7964 242.7244,-108.5578 243.5027,-113.4969 243.5027,-113.4969 243.5027,-113.4969 242.7244,-108.5578 239.0576,-114.1974 241.9461,-103.6188 241.9461,-103.6188"/>
<text text-anchor="middle" x="280.592" y="-192.5" font-family="Helvetica,sans-Serif" font-size="10.00" fill="#000000">hash(m.p)</text>
</g>
<!-- A11&#45;&gt;A4 -->
<g id="edge20" class="edge">
<title>A11&#45;&gt;A4</title>
<path fill="none" stroke="#000000" d="M429.9175,-122.2512C393.9107,-97.1465 329.8225,-52.4628 296.8915,-29.5025"/>
<polygon fill="#000000" stroke="#000000" points="288.4786,-23.6369 299.2554,-25.6649 292.5802,-26.4966 296.6817,-29.3563 296.6817,-29.3563 296.6817,-29.3563 292.5802,-26.4966 294.108,-33.0477 288.4786,-23.6369 288.4786,-23.6369"/>
</g>
<!-- A12&#45;&gt;A4 -->
<g id="edge22" class="edge">
<title>A12&#45;&gt;A4</title>
<path fill="none" stroke="#000000" d="M488.6589,-70.0333C464.0866,-63.1405 434.6687,-55.0123 408.091,-48 370.7524,-38.1485 327.2736,-27.4221 300.7227,-20.9554"/>
<polygon fill="#000000" stroke="#000000" points="290.7727,-18.5385 301.5524,-16.5261 295.6314,-19.7188 300.4901,-20.899 300.4901,-20.899 300.4901,-20.899 295.6314,-19.7188 299.4279,-25.2718 290.7727,-18.5385 290.7727,-18.5385"/>
</g>
<!-- A13 -->
<g id="node14" class="node">
<title>A13</title>
<polygon fill="none" stroke="#000000" points="413.1508,-513 301.0312,-513 301.0312,-361 419.1508,-361 419.1508,-507 413.1508,-513"/>
<polyline fill="none" stroke="#000000" points="413.1508,-513 413.1508,-507 "/>
<polyline fill="none" stroke="#000000" points="419.1508,-507 413.1508,-507 "/>
<text text-anchor="middle" x="360.091" y="-500" font-family="Helvetica,sans-Serif" font-size="10.00" fill="#000000">∀x□Fy → □∀xFy is</text>
<text text-anchor="middle" x="360.091" y="-488" font-family="Helvetica,sans-Serif" font-size="10.00" fill="#000000">valid.</text>
<text text-anchor="middle" x="360.091" y="-476" font-family="Helvetica,sans-Serif" font-size="10.00" fill="#000000">1.¬(∀x□Fy →</text>
<text text-anchor="middle" x="360.091" y="-464" font-family="Helvetica,sans-Serif" font-size="10.00" fill="#000000">□∀xFy)(w)</text>
<text text-anchor="middle" x="360.091" y="-452" font-family="Helvetica,sans-Serif" font-size="10.00" fill="#000000">2.∀x□Fy(w)(1)</text>
<text text-anchor="middle" x="360.091" y="-440" font-family="Helvetica,sans-Serif" font-size="10.00" fill="#000000">3.¬□∀xFy(w)(1)</text>
<text text-anchor="middle" x="360.091" y="-428" font-family="Helvetica,sans-Serif" font-size="10.00" fill="#000000">4.wRv(3)</text>
<text text-anchor="middle" x="360.091" y="-416" font-family="Helvetica,sans-Serif" font-size="10.00" fill="#000000">5.¬∀xFy(v)(3)</text>
<text text-anchor="middle" x="360.091" y="-404" font-family="Helvetica,sans-Serif" font-size="10.00" fill="#000000">6.¬Fy(v)(5)</text>
<text text-anchor="middle" x="360.091" y="-392" font-family="Helvetica,sans-Serif" font-size="10.00" fill="#000000">7.□Fy(w)(2)</text>
<text text-anchor="middle" x="360.091" y="-380" font-family="Helvetica,sans-Serif" font-size="10.00" fill="#000000">8.Fy(v)(7,4)</text>
<text text-anchor="middle" x="360.091" y="-368" font-family="Helvetica,sans-Serif" font-size="10.00" fill="#000000">x</text>
</g>
<!-- A14&#45;&gt;A4 -->
<g id="edge24" class="edge">
<title>A14&#45;&gt;A4</title>
<path fill="none" stroke="#000000" d="M637.5401,-232.3633C643.3891,-195.5513 650.6456,-111.7721 606.091,-67 584.5426,-45.3464 374.951,-24.1141 301.4251,-17.2758"/>
<polygon fill="#000000" stroke="#000000" points="291.2214,-16.3383 301.5912,-12.7722 296.2004,-16.7958 301.1795,-17.2533 301.1795,-17.2533 301.1795,-17.2533 296.2004,-16.7958 300.7677,-21.7344 291.2214,-16.3383 291.2214,-16.3383"/>
</g>
</g>
</svg>
