<?xml version="1.0" encoding="UTF-8" standalone="no"?>
<!DOCTYPE svg PUBLIC "-//W3C//DTD SVG 1.1//EN"
 "http://www.w3.org/Graphics/SVG/1.1/DTD/svg11.dtd">
<!-- Generated by graphviz version 2.40.1 (20161225.0304)
 -->
<!-- Title: G Pages: 1 -->
<svg width="417pt" height="391pt"
 viewBox="0.00 0.00 416.88 391.00" xmlns="http://www.w3.org/2000/svg" xmlns:xlink="http://www.w3.org/1999/xlink">
<g id="graph0" class="graph" transform="scale(1 1) rotate(0) translate(4 387)">
<title>G</title>
<!-- A0 -->
<g id="node1" class="node">
<title>A0</title>
<ellipse fill="none" stroke="#000000" cx="189.091" cy="-372" rx="11" ry="11"/>
</g>
<!-- A1 -->
<g id="node2" class="node">
<title>A1</title>
<path fill="none" stroke="#000000" d="M12,-287.5C12,-287.5 50.182,-287.5 50.182,-287.5 56.182,-287.5 62.182,-293.5 62.182,-299.5 62.182,-299.5 62.182,-311.5 62.182,-311.5 62.182,-317.5 56.182,-323.5 50.182,-323.5 50.182,-323.5 12,-323.5 12,-323.5 6,-323.5 0,-317.5 0,-311.5 0,-311.5 0,-299.5 0,-299.5 0,-293.5 6,-287.5 12,-287.5"/>
<text text-anchor="middle" x="31.091" y="-302.5" font-family="Helvetica,sans-Serif" font-size="10.00" fill="#000000">P → ~Q</text>
</g>
<!-- A0&#45;&gt;A1 -->
<g id="edge1" class="edge">
<title>A0&#45;&gt;A1</title>
<path fill="none" stroke="#000000" d="M178.6045,-367.9253C159.2511,-360.3658 116.4527,-343.4663 71.734,-324.1963"/>
<polygon fill="#000000" stroke="#000000" points="62.4712,-320.1821 73.436,-320.0295 67.0589,-322.1703 71.6467,-324.1585 71.6467,-324.1585 71.6467,-324.1585 67.0589,-322.1703 69.8573,-328.2874 62.4712,-320.1821 62.4712,-320.1821"/>
</g>
<!-- A2 -->
<g id="node3" class="node">
<title>A2</title>
<path fill="none" stroke="#000000" d="M92.091,-287.5C92.091,-287.5 122.091,-287.5 122.091,-287.5 128.091,-287.5 134.091,-293.5 134.091,-299.5 134.091,-299.5 134.091,-311.5 134.091,-311.5 134.091,-317.5 128.091,-323.5 122.091,-323.5 122.091,-323.5 92.091,-323.5 92.091,-323.5 86.091,-323.5 80.091,-317.5 80.091,-311.5 80.091,-311.5 80.091,-299.5 80.091,-299.5 80.091,-293.5 86.091,-287.5 92.091,-287.5"/>
<text text-anchor="middle" x="106.9" y="-302.5" font-family="Helvetica,sans-Serif" font-size="10.00" fill="#000000">~Q</text>
</g>
<!-- A0&#45;&gt;A2 -->
<g id="edge2" class="edge">
<title>A0&#45;&gt;A2</title>
<path fill="none" stroke="#000000" d="M179.7306,-365.8693C171.2595,-360.2074 158.5462,-351.4242 148.091,-343 143.279,-339.1228 138.3078,-334.8377 133.5585,-330.5917"/>
<polygon fill="#000000" stroke="#000000" points="125.8424,-323.5619 136.2652,-326.9702 129.5385,-326.9293 133.2346,-330.2966 133.2346,-330.2966 133.2346,-330.2966 129.5385,-326.9293 130.2039,-333.6231 125.8424,-323.5619 125.8424,-323.5619"/>
</g>
<!-- A5 -->
<g id="node6" class="node">
<title>A5</title>
<path fill="none" stroke="#000000" d="M201.7535,-287.5C201.7535,-287.5 232.4285,-287.5 232.4285,-287.5 238.4285,-287.5 244.4285,-293.5 244.4285,-299.5 244.4285,-299.5 244.4285,-311.5 244.4285,-311.5 244.4285,-317.5 238.4285,-323.5 232.4285,-323.5 232.4285,-323.5 201.7535,-323.5 201.7535,-323.5 195.7535,-323.5 189.7535,-317.5 189.7535,-311.5 189.7535,-311.5 189.7535,-299.5 189.7535,-299.5 189.7535,-293.5 195.7535,-287.5 201.7535,-287.5"/>
<text text-anchor="middle" x="217.091" y="-302.5" font-family="Helvetica,sans-Serif" font-size="10.00" fill="#000000">P &amp; Q</text>
</g>
<!-- A0&#45;&gt;A5 -->
<g id="edge6" class="edge">
<title>A0&#45;&gt;A5</title>
<path fill="none" stroke="#000000" d="M193.466,-361.6094C196.7063,-353.9136 201.2799,-343.0513 205.541,-332.9313"/>
<polygon fill="#000000" stroke="#000000" points="209.4769,-323.5836 209.7436,-334.5462 207.5365,-328.1918 205.5962,-332.7999 205.5962,-332.7999 205.5962,-332.7999 207.5365,-328.1918 201.4489,-331.0537 209.4769,-323.5836 209.4769,-323.5836"/>
</g>
<!-- A6 -->
<g id="node7" class="node">
<title>A6</title>
<path fill="none" stroke="#000000" d="M147.091,-177.5C147.091,-177.5 177.091,-177.5 177.091,-177.5 183.091,-177.5 189.091,-183.5 189.091,-189.5 189.091,-189.5 189.091,-201.5 189.091,-201.5 189.091,-207.5 183.091,-213.5 177.091,-213.5 177.091,-213.5 147.091,-213.5 147.091,-213.5 141.091,-213.5 135.091,-207.5 135.091,-201.5 135.091,-201.5 135.091,-189.5 135.091,-189.5 135.091,-183.5 141.091,-177.5 147.091,-177.5"/>
<text text-anchor="middle" x="161.9255" y="-192.5" font-family="Helvetica,sans-Serif" font-size="10.00" fill="#000000">P</text>
</g>
<!-- A0&#45;&gt;A6 -->
<g id="edge15" class="edge">
<title>A0&#45;&gt;A6</title>
<path fill="none" stroke="#000000" d="M187.1905,-360.9517C185.5321,-351.2288 183.0858,-336.6855 181.091,-324 175.672,-289.539 169.8647,-249.8066 166.1168,-223.7555"/>
<polygon fill="#000000" stroke="#000000" points="164.6914,-213.8165 170.5655,-223.0763 165.4013,-218.7658 166.1111,-223.7152 166.1111,-223.7152 166.1111,-223.7152 165.4013,-218.7658 161.6567,-224.3541 164.6914,-213.8165 164.6914,-213.8165"/>
</g>
<!-- A8 -->
<g id="node9" class="node">
<title>A8</title>
<path fill="none" stroke="#000000" d="M326.6685,-232.5C326.6685,-232.5 361.5135,-232.5 361.5135,-232.5 367.5135,-232.5 373.5135,-238.5 373.5135,-244.5 373.5135,-244.5 373.5135,-256.5 373.5135,-256.5 373.5135,-262.5 367.5135,-268.5 361.5135,-268.5 361.5135,-268.5 326.6685,-268.5 326.6685,-268.5 320.6685,-268.5 314.6685,-262.5 314.6685,-256.5 314.6685,-256.5 314.6685,-244.5 314.6685,-244.5 314.6685,-238.5 320.6685,-232.5 326.6685,-232.5"/>
<text text-anchor="middle" x="344.091" y="-247.5" font-family="Helvetica,sans-Serif" font-size="10.00" fill="#000000">P v ~Q</text>
</g>
<!-- A0&#45;&gt;A8 -->
<g id="edge11" class="edge">
<title>A0&#45;&gt;A8</title>
<path fill="none" stroke="#000000" d="M199.3881,-367.9468C211.8203,-362.8654 233.1667,-353.5333 250.091,-343 278.9207,-325.0571 305.8959,-296.8576 323.4891,-276.3082"/>
<polygon fill="#000000" stroke="#000000" points="329.9816,-268.5711 327.0006,-279.124 326.7676,-272.4012 323.5535,-276.2314 323.5535,-276.2314 323.5535,-276.2314 326.7676,-272.4012 320.1064,-273.3387 329.9816,-268.5711 329.9816,-268.5711"/>
</g>
<!-- A10 -->
<g id="node11" class="node">
<title>A10</title>
<path fill="none" stroke="#000000" d="M255.9195,-232.5C255.9195,-232.5 288.2625,-232.5 288.2625,-232.5 294.2625,-232.5 300.2625,-238.5 300.2625,-244.5 300.2625,-244.5 300.2625,-256.5 300.2625,-256.5 300.2625,-262.5 294.2625,-268.5 288.2625,-268.5 288.2625,-268.5 255.9195,-268.5 255.9195,-268.5 249.9195,-268.5 243.9195,-262.5 243.9195,-256.5 243.9195,-256.5 243.9195,-244.5 243.9195,-244.5 243.9195,-238.5 249.9195,-232.5 255.9195,-232.5"/>
<text text-anchor="middle" x="272.091" y="-247.5" font-family="Helvetica,sans-Serif" font-size="10.00" fill="#000000">P → Q</text>
</g>
<!-- A0&#45;&gt;A10 -->
<g id="edge14" class="edge">
<title>A0&#45;&gt;A10</title>
<path fill="none" stroke="#000000" d="M199.4633,-367.068C213.7663,-359.7232 239.3338,-344.5409 253.091,-324 262.0616,-310.6059 266.7975,-293.2324 269.2974,-278.7396"/>
<polygon fill="#000000" stroke="#000000" points="270.7511,-268.7939 273.7574,-279.3396 270.0279,-273.7413 269.3047,-278.6888 269.3047,-278.6888 269.3047,-278.6888 270.0279,-273.7413 264.8521,-278.0379 270.7511,-268.7939 270.7511,-268.7939"/>
</g>
<!-- A3 -->
<g id="node4" class="node">
<title>A3</title>
<path fill="none" stroke="#000000" d="M74.091,-177.5C74.091,-177.5 104.091,-177.5 104.091,-177.5 110.091,-177.5 116.091,-183.5 116.091,-189.5 116.091,-189.5 116.091,-201.5 116.091,-201.5 116.091,-207.5 110.091,-213.5 104.091,-213.5 104.091,-213.5 74.091,-213.5 74.091,-213.5 68.091,-213.5 62.091,-207.5 62.091,-201.5 62.091,-201.5 62.091,-189.5 62.091,-189.5 62.091,-183.5 68.091,-177.5 74.091,-177.5"/>
<text text-anchor="middle" x="88.845" y="-192.5" font-family="Helvetica,sans-Serif" font-size="10.00" fill="#000000">~P</text>
</g>
<!-- A1&#45;&gt;A3 -->
<g id="edge3" class="edge">
<title>A1&#45;&gt;A3</title>
<path fill="none" stroke="#000000" d="M40.6685,-287.3357C49.9457,-269.741 64.1309,-242.8382 74.7538,-222.6912"/>
<polygon fill="#000000" stroke="#000000" points="79.4993,-213.6912 78.8157,-224.6358 77.1672,-218.1141 74.8351,-222.537 74.8351,-222.537 74.8351,-222.537 77.1672,-218.1141 70.8545,-220.4381 79.4993,-213.6912 79.4993,-213.6912"/>
</g>
<!-- A2&#45;&gt;A3 -->
<g id="edge4" class="edge">
<title>A2&#45;&gt;A3</title>
<path fill="none" stroke="#000000" d="M104.1187,-287.3357C101.2916,-270.0595 96.9961,-243.809 93.7206,-223.7917"/>
<polygon fill="#000000" stroke="#000000" points="92.0677,-213.6912 98.1237,-222.8333 92.8752,-218.6256 93.6827,-223.56 93.6827,-223.56 93.6827,-223.56 92.8752,-218.6256 89.2418,-224.2867 92.0677,-213.6912 92.0677,-213.6912"/>
</g>
<!-- A4 -->
<g id="node5" class="node">
<title>A4</title>
<ellipse fill="none" stroke="#000000" cx="204.091" cy="-15" rx="11" ry="11"/>
<ellipse fill="none" stroke="#000000" cx="204.091" cy="-15" rx="15" ry="15"/>
</g>
<!-- A3&#45;&gt;A4 -->
<g id="edge5" class="edge">
<title>A3&#45;&gt;A4</title>
<path fill="none" stroke="#000000" d="M95.3198,-177.3557C104.7363,-151.409 124.2725,-102.8806 150.091,-67 159.7832,-53.5305 173.2158,-40.5792 184.2589,-30.9711"/>
<polygon fill="#000000" stroke="#000000" points="192.1362,-24.3222 187.397,-34.2111 188.3153,-27.5472 184.4944,-30.7723 184.4944,-30.7723 184.4944,-30.7723 188.3153,-27.5472 181.5919,-27.3335 192.1362,-24.3222 192.1362,-24.3222"/>
</g>
<!-- A5&#45;&gt;A6 -->
<g id="edge7" class="edge">
<title>A5&#45;&gt;A6</title>
<path fill="none" stroke="#000000" d="M208.0089,-287.3357C199.2115,-269.741 185.7601,-242.8382 175.6866,-222.6912"/>
<polygon fill="#000000" stroke="#000000" points="171.1866,-213.6912 179.6837,-220.623 173.4227,-218.1634 175.6588,-222.6355 175.6588,-222.6355 175.6588,-222.6355 173.4227,-218.1634 171.6339,-224.648 171.1866,-213.6912 171.1866,-213.6912"/>
</g>
<!-- A7 -->
<g id="node8" class="node">
<title>A7</title>
<path fill="none" stroke="#000000" d="M189.091,-67.5C189.091,-67.5 219.091,-67.5 219.091,-67.5 225.091,-67.5 231.091,-73.5 231.091,-79.5 231.091,-79.5 231.091,-91.5 231.091,-91.5 231.091,-97.5 225.091,-103.5 219.091,-103.5 219.091,-103.5 189.091,-103.5 189.091,-103.5 183.091,-103.5 177.091,-97.5 177.091,-91.5 177.091,-91.5 177.091,-79.5 177.091,-79.5 177.091,-73.5 183.091,-67.5 189.091,-67.5"/>
<text text-anchor="middle" x="203.9805" y="-82.5" font-family="Helvetica,sans-Serif" font-size="10.00" fill="#000000">Q</text>
</g>
<!-- A5&#45;&gt;A7 -->
<g id="edge8" class="edge">
<title>A5&#45;&gt;A7</title>
<path fill="none" stroke="#000000" d="M217.7217,-287.4445C218.6252,-254.4503 219.4495,-182.2637 212.091,-122 211.7561,-119.2572 211.3112,-116.4167 210.8021,-113.5869"/>
<polygon fill="#000000" stroke="#000000" points="208.7593,-103.5786 215.1684,-112.4767 209.7593,-108.4776 210.7593,-113.3766 210.7593,-113.3766 210.7593,-113.3766 209.7593,-108.4776 206.3502,-114.2766 208.7593,-103.5786 208.7593,-103.5786"/>
</g>
<!-- A6&#45;&gt;A4 -->
<g id="edge9" class="edge">
<title>A6&#45;&gt;A4</title>
<path fill="none" stroke="#000000" d="M155.4251,-177.1702C153.6494,-171.4319 151.979,-165.0238 151.091,-159 148.6928,-142.7314 148.6354,-138.2601 151.091,-122 154.9116,-96.7014 156.9009,-90.0087 168.091,-67 173.5498,-55.7757 181.2588,-44.2668 188.1433,-34.939"/>
<polygon fill="#000000" stroke="#000000" points="194.3909,-26.7447 191.9063,-37.4254 191.3594,-30.7209 188.3278,-34.697 188.3278,-34.697 188.3278,-34.697 191.3594,-30.7209 184.7493,-31.9686 194.3909,-26.7447 194.3909,-26.7447"/>
</g>
<!-- A6&#45;&gt;A7 -->
<g id="edge17" class="edge">
<title>A6&#45;&gt;A7</title>
<path fill="none" stroke="#000000" d="M157.5971,-177.3722C154.7249,-161.9136 152.8856,-139.4833 160.99,-122 163.1512,-117.3379 166.2337,-113.0549 169.7699,-109.1913"/>
<polygon fill="#000000" stroke="#000000" points="177.0061,-102.2887 172.8762,-112.4472 173.3881,-105.7398 169.7701,-109.191 169.7701,-109.191 169.7701,-109.191 173.3881,-105.7398 166.6641,-105.9348 177.0061,-102.2887 177.0061,-102.2887"/>
<text text-anchor="middle" x="185.6415" y="-137.5" font-family="Helvetica,sans-Serif" font-size="10.00" fill="#000000">hamm(m.p)</text>
</g>
<!-- A7&#45;&gt;A4 -->
<g id="edge10" class="edge">
<title>A7&#45;&gt;A4</title>
<path fill="none" stroke="#000000" d="M198.1028,-67.3445C197.2749,-58.782 197.1218,-48.4439 197.6435,-39.2246"/>
<polygon fill="#000000" stroke="#000000" points="198.5658,-29.0894 202.1409,-39.4561 198.1126,-34.0688 197.6594,-39.0482 197.6594,-39.0482 197.6594,-39.0482 198.1126,-34.0688 193.1779,-38.6404 198.5658,-29.0894 198.5658,-29.0894"/>
</g>
<!-- A7&#45;&gt;A4 -->
<g id="edge18" class="edge">
<title>A7&#45;&gt;A4</title>
<path fill="none" stroke="#000000" d="M210.0792,-67.3445C210.9071,-58.782 211.0602,-48.4439 210.5385,-39.2246"/>
<polygon fill="#000000" stroke="#000000" points="209.6162,-29.0894 215.0041,-38.6404 210.0694,-34.0688 210.5226,-39.0482 210.5226,-39.0482 210.5226,-39.0482 210.0694,-34.0688 206.0411,-39.4561 209.6162,-29.0894 209.6162,-29.0894"/>
</g>
<!-- A9 -->
<g id="node10" class="node">
<title>A9</title>
<path fill="none" stroke="#000000" d="M313.5855,-122.5C313.5855,-122.5 362.5965,-122.5 362.5965,-122.5 368.5965,-122.5 374.5965,-128.5 374.5965,-134.5 374.5965,-134.5 374.5965,-146.5 374.5965,-146.5 374.5965,-152.5 368.5965,-158.5 362.5965,-158.5 362.5965,-158.5 313.5855,-158.5 313.5855,-158.5 307.5855,-158.5 301.5855,-152.5 301.5855,-146.5 301.5855,-146.5 301.5855,-134.5 301.5855,-134.5 301.5855,-128.5 307.5855,-122.5 313.5855,-122.5"/>
<text text-anchor="middle" x="338.091" y="-137.5" font-family="Helvetica,sans-Serif" font-size="10.00" fill="#000000">~(~P &amp; Q)</text>
</g>
<!-- A8&#45;&gt;A9 -->
<g id="edge12" class="edge">
<title>A8&#45;&gt;A9</title>
<path fill="none" stroke="#000000" d="M343.1002,-232.3357C342.1579,-215.0595 340.726,-188.809 339.6342,-168.7917"/>
<polygon fill="#000000" stroke="#000000" points="339.0832,-158.6912 344.1213,-168.4313 339.3556,-163.6838 339.628,-168.6764 339.628,-168.6764 339.628,-168.6764 339.3556,-163.6838 335.1347,-168.9215 339.0832,-158.6912 339.0832,-158.6912"/>
<text text-anchor="middle" x="374.985" y="-192.5" font-family="Helvetica,sans-Serif" font-size="10.00" fill="#000000">demorgans.law</text>
</g>
<!-- A9&#45;&gt;A4 -->
<g id="edge13" class="edge">
<title>A9&#45;&gt;A4</title>
<path fill="none" stroke="#000000" d="M318.6062,-122.2512C292.9308,-98.2045 248.0753,-56.1942 222.7955,-32.518"/>
<polygon fill="#000000" stroke="#000000" points="215.3248,-25.5212 225.6997,-29.0725 218.9742,-28.9391 222.6236,-32.357 222.6236,-32.357 222.6236,-32.357 218.9742,-28.9391 219.5474,-35.6414 215.3248,-25.5212 215.3248,-25.5212"/>
</g>
<!-- A10&#45;&gt;A7 -->
<g id="edge16" class="edge">
<title>A10&#45;&gt;A7</title>
<path fill="none" stroke="#000000" d="M270.6125,-232.3583C267.849,-206.4146 260.2269,-157.89 240.091,-122 237.9843,-118.245 235.3883,-114.6058 232.5632,-111.1728"/>
<polygon fill="#000000" stroke="#000000" points="225.6777,-103.5788 235.7285,-107.9643 229.0362,-107.2829 232.3948,-110.987 232.3948,-110.987 232.3948,-110.987 229.0362,-107.2829 229.061,-114.0097 225.6777,-103.5788 225.6777,-103.5788"/>
<text text-anchor="middle" x="289.592" y="-192.5" font-family="Helvetica,sans-Serif" font-size="10.00" fill="#000000">hash(m.p)</text>
</g>
</g>
</svg>
