<?xml version="1.0" encoding="UTF-8" standalone="no"?>
<!DOCTYPE svg PUBLIC "-//W3C//DTD SVG 1.1//EN"
 "http://www.w3.org/Graphics/SVG/1.1/DTD/svg11.dtd">
<!-- Generated by graphviz version 2.40.1 (20161225.0304)
 -->
<!-- Title: G Pages: 1 -->
<svg width="250pt" height="242pt"
 viewBox="0.00 0.00 250.09 242.00" xmlns="http://www.w3.org/2000/svg" xmlns:xlink="http://www.w3.org/1999/xlink">
<g id="graph0" class="graph" transform="scale(1 1) rotate(0) translate(4 238)">
<title>G</title>
<!-- A0 -->
<g id="node1" class="node">
<title>A0</title>
<ellipse fill="none" stroke="#000000" cx="107.091" cy="-223" rx="11" ry="11"/>
</g>
<!-- A1 -->
<g id="node2" class="node">
<title>A1</title>
<path fill="none" stroke="#000000" d="M12,-139.5C12,-139.5 50.182,-139.5 50.182,-139.5 56.182,-139.5 62.182,-145.5 62.182,-151.5 62.182,-151.5 62.182,-163.5 62.182,-163.5 62.182,-169.5 56.182,-175.5 50.182,-175.5 50.182,-175.5 12,-175.5 12,-175.5 6,-175.5 0,-169.5 0,-163.5 0,-163.5 0,-151.5 0,-151.5 0,-145.5 6,-139.5 12,-139.5"/>
<text text-anchor="middle" x="31.091" y="-154.5" font-family="Helvetica,sans-Serif" font-size="10.00" fill="#000000">P → ~Q</text>
</g>
<!-- A0&#45;&gt;A1 -->
<g id="edge1" class="edge">
<title>A0&#45;&gt;A1</title>
<path fill="none" stroke="#000000" d="M98.6673,-215.7401C89.3629,-207.7212 73.8674,-194.3665 60.0603,-182.4669"/>
<polygon fill="#000000" stroke="#000000" points="52.1855,-175.6802 62.6983,-178.7999 55.973,-178.9444 59.7605,-182.2086 59.7605,-182.2086 59.7605,-182.2086 55.973,-178.9444 56.8227,-185.6173 52.1855,-175.6802 52.1855,-175.6802"/>
</g>
<!-- A2 -->
<g id="node3" class="node">
<title>A2</title>
<path fill="none" stroke="#000000" d="M92.091,-139.5C92.091,-139.5 122.091,-139.5 122.091,-139.5 128.091,-139.5 134.091,-145.5 134.091,-151.5 134.091,-151.5 134.091,-163.5 134.091,-163.5 134.091,-169.5 128.091,-175.5 122.091,-175.5 122.091,-175.5 92.091,-175.5 92.091,-175.5 86.091,-175.5 80.091,-169.5 80.091,-163.5 80.091,-163.5 80.091,-151.5 80.091,-151.5 80.091,-145.5 86.091,-139.5 92.091,-139.5"/>
<text text-anchor="middle" x="106.9" y="-154.5" font-family="Helvetica,sans-Serif" font-size="10.00" fill="#000000">~Q</text>
</g>
<!-- A0&#45;&gt;A2 -->
<g id="edge2" class="edge">
<title>A0&#45;&gt;A2</title>
<path fill="none" stroke="#000000" d="M107.091,-211.8888C107.091,-204.6757 107.091,-194.9278 107.091,-185.6765"/>
<polygon fill="#000000" stroke="#000000" points="107.091,-175.6041 111.5911,-185.6041 107.091,-180.6041 107.0911,-185.6041 107.0911,-185.6041 107.0911,-185.6041 107.091,-180.6041 102.5911,-185.6042 107.091,-175.6041 107.091,-175.6041"/>
</g>
<!-- A5 -->
<g id="node6" class="node">
<title>A5</title>
<path fill="none" stroke="#000000" d="M163.7535,-139.5C163.7535,-139.5 194.4285,-139.5 194.4285,-139.5 200.4285,-139.5 206.4285,-145.5 206.4285,-151.5 206.4285,-151.5 206.4285,-163.5 206.4285,-163.5 206.4285,-169.5 200.4285,-175.5 194.4285,-175.5 194.4285,-175.5 163.7535,-175.5 163.7535,-175.5 157.7535,-175.5 151.7535,-169.5 151.7535,-163.5 151.7535,-163.5 151.7535,-151.5 151.7535,-151.5 151.7535,-145.5 157.7535,-139.5 163.7535,-139.5"/>
<text text-anchor="middle" x="179.091" y="-154.5" font-family="Helvetica,sans-Serif" font-size="10.00" fill="#000000">P &amp; Q</text>
</g>
<!-- A0&#45;&gt;A5 -->
<g id="edge6" class="edge">
<title>A0&#45;&gt;A5</title>
<path fill="none" stroke="#000000" d="M115.3503,-215.4863C124.2431,-207.3964 138.866,-194.0936 151.8641,-182.2689"/>
<polygon fill="#000000" stroke="#000000" points="159.2738,-175.5282 154.9049,-185.5862 155.5752,-178.8928 151.8767,-182.2575 151.8767,-182.2575 151.8767,-182.2575 155.5752,-178.8928 148.8485,-178.9288 159.2738,-175.5282 159.2738,-175.5282"/>
</g>
<!-- A3 -->
<g id="node4" class="node">
<title>A3</title>
<path fill="none" stroke="#000000" d="M56.091,-66.5C56.091,-66.5 86.091,-66.5 86.091,-66.5 92.091,-66.5 98.091,-72.5 98.091,-78.5 98.091,-78.5 98.091,-90.5 98.091,-90.5 98.091,-96.5 92.091,-102.5 86.091,-102.5 86.091,-102.5 56.091,-102.5 56.091,-102.5 50.091,-102.5 44.091,-96.5 44.091,-90.5 44.091,-90.5 44.091,-78.5 44.091,-78.5 44.091,-72.5 50.091,-66.5 56.091,-66.5"/>
<text text-anchor="middle" x="70.845" y="-81.5" font-family="Helvetica,sans-Serif" font-size="10.00" fill="#000000">~P</text>
</g>
<!-- A1&#45;&gt;A3 -->
<g id="edge3" class="edge">
<title>A1&#45;&gt;A3</title>
<path fill="none" stroke="#000000" d="M40.9786,-139.4551C45.5941,-131.0319 51.1846,-120.8292 56.2895,-111.5128"/>
<polygon fill="#000000" stroke="#000000" points="61.1785,-102.5904 60.3195,-113.5226 58.7758,-106.9752 56.3731,-111.3601 56.3731,-111.3601 56.3731,-111.3601 58.7758,-106.9752 52.4267,-109.1977 61.1785,-102.5904 61.1785,-102.5904"/>
</g>
<!-- A2&#45;&gt;A3 -->
<g id="edge4" class="edge">
<title>A2&#45;&gt;A3</title>
<path fill="none" stroke="#000000" d="M98.1921,-139.4551C94.0815,-131.1196 89.1115,-121.0416 84.5561,-111.8042"/>
<polygon fill="#000000" stroke="#000000" points="80.0123,-102.5904 88.4712,-109.5687 82.2238,-107.0747 84.4353,-111.5591 84.4353,-111.5591 84.4353,-111.5591 82.2238,-107.0747 80.3993,-113.5494 80.0123,-102.5904 80.0123,-102.5904"/>
</g>
<!-- A4 -->
<g id="node5" class="node">
<title>A4</title>
<ellipse fill="none" stroke="#000000" cx="143.091" cy="-15" rx="11" ry="11"/>
<ellipse fill="none" stroke="#000000" cx="143.091" cy="-15" rx="15" ry="15"/>
</g>
<!-- A3&#45;&gt;A4 -->
<g id="edge5" class="edge">
<title>A3&#45;&gt;A4</title>
<path fill="none" stroke="#000000" d="M90.0082,-66.2397C100.6327,-55.9841 113.8414,-43.234 124.4248,-33.018"/>
<polygon fill="#000000" stroke="#000000" points="131.92,-25.7831 127.8504,-35.9659 128.3225,-29.2557 124.7251,-32.7282 124.7251,-32.7282 124.7251,-32.7282 128.3225,-29.2557 121.5998,-29.4905 131.92,-25.7831 131.92,-25.7831"/>
</g>
<!-- A6 -->
<g id="node7" class="node">
<title>A6</title>
<path fill="none" stroke="#000000" d="M128.091,-66.5C128.091,-66.5 158.091,-66.5 158.091,-66.5 164.091,-66.5 170.091,-72.5 170.091,-78.5 170.091,-78.5 170.091,-90.5 170.091,-90.5 170.091,-96.5 164.091,-102.5 158.091,-102.5 158.091,-102.5 128.091,-102.5 128.091,-102.5 122.091,-102.5 116.091,-96.5 116.091,-90.5 116.091,-90.5 116.091,-78.5 116.091,-78.5 116.091,-72.5 122.091,-66.5 128.091,-66.5"/>
<text text-anchor="middle" x="142.9255" y="-81.5" font-family="Helvetica,sans-Serif" font-size="10.00" fill="#000000">P</text>
</g>
<!-- A5&#45;&gt;A6 -->
<g id="edge7" class="edge">
<title>A5&#45;&gt;A6</title>
<path fill="none" stroke="#000000" d="M170.1921,-139.4551C166.0815,-131.1196 161.1115,-121.0416 156.5561,-111.8042"/>
<polygon fill="#000000" stroke="#000000" points="152.0123,-102.5904 160.4712,-109.5687 154.2238,-107.0747 156.4353,-111.5591 156.4353,-111.5591 156.4353,-111.5591 154.2238,-107.0747 152.3993,-113.5494 152.0123,-102.5904 152.0123,-102.5904"/>
</g>
<!-- A7 -->
<g id="node8" class="node">
<title>A7</title>
<path fill="none" stroke="#000000" d="M200.091,-66.5C200.091,-66.5 230.091,-66.5 230.091,-66.5 236.091,-66.5 242.091,-72.5 242.091,-78.5 242.091,-78.5 242.091,-90.5 242.091,-90.5 242.091,-96.5 236.091,-102.5 230.091,-102.5 230.091,-102.5 200.091,-102.5 200.091,-102.5 194.091,-102.5 188.091,-96.5 188.091,-90.5 188.091,-90.5 188.091,-78.5 188.091,-78.5 188.091,-72.5 194.091,-66.5 200.091,-66.5"/>
<text text-anchor="middle" x="214.9805" y="-81.5" font-family="Helvetica,sans-Serif" font-size="10.00" fill="#000000">Q</text>
</g>
<!-- A5&#45;&gt;A7 -->
<g id="edge8" class="edge">
<title>A5&#45;&gt;A7</title>
<path fill="none" stroke="#000000" d="M187.9899,-139.4551C192.1005,-131.1196 197.0705,-121.0416 201.6259,-111.8042"/>
<polygon fill="#000000" stroke="#000000" points="206.1697,-102.5904 205.7827,-113.5494 203.9582,-107.0747 201.7467,-111.5591 201.7467,-111.5591 201.7467,-111.5591 203.9582,-107.0747 197.7108,-109.5687 206.1697,-102.5904 206.1697,-102.5904"/>
</g>
<!-- A6&#45;&gt;A4 -->
<g id="edge9" class="edge">
<title>A6&#45;&gt;A4</title>
<path fill="none" stroke="#000000" d="M143.091,-66.2397C143.091,-58.3218 143.091,-48.9169 143.091,-40.3394"/>
<polygon fill="#000000" stroke="#000000" points="143.091,-30.0912 147.5911,-40.0911 143.091,-35.0912 143.0911,-40.0912 143.0911,-40.0912 143.0911,-40.0912 143.091,-35.0912 138.5911,-40.0912 143.091,-30.0912 143.091,-30.0912"/>
</g>
<!-- A7&#45;&gt;A4 -->
<g id="edge10" class="edge">
<title>A7&#45;&gt;A4</title>
<path fill="none" stroke="#000000" d="M196.1738,-66.2397C185.5493,-55.9841 172.3406,-43.234 161.7572,-33.018"/>
<polygon fill="#000000" stroke="#000000" points="154.262,-25.7831 164.5822,-29.4905 157.8595,-29.2557 161.4569,-32.7282 161.4569,-32.7282 161.4569,-32.7282 157.8595,-29.2557 158.3316,-35.9659 154.262,-25.7831 154.262,-25.7831"/>
</g>
</g>
</svg>
