<?xml version="1.0" encoding="UTF-8" standalone="no"?>
<!DOCTYPE svg PUBLIC "-//W3C//DTD SVG 1.1//EN"
 "http://www.w3.org/Graphics/SVG/1.1/DTD/svg11.dtd">
<!-- Generated by graphviz version 2.40.1 (20161225.0304)
 -->
<!-- Title: G Pages: 1 -->
<svg width="298pt" height="345pt"
 viewBox="0.00 0.00 297.51 345.00" xmlns="http://www.w3.org/2000/svg" xmlns:xlink="http://www.w3.org/1999/xlink">
<g id="graph0" class="graph" transform="scale(1 1) rotate(0) translate(4 341)">
<title>G</title>
<!-- A0 -->
<g id="node1" class="node">
<title>A0</title>
<ellipse fill="none" stroke="#000000" cx="52" cy="-318.5" rx="11" ry="11"/>
</g>
<!-- A1 -->
<g id="node2" class="node">
<title>A1</title>
<path fill="none" stroke="#000000" d="M12,-215.5C12,-215.5 42,-215.5 42,-215.5 48,-215.5 54,-221.5 54,-227.5 54,-227.5 54,-239.5 54,-239.5 54,-245.5 48,-251.5 42,-251.5 42,-251.5 12,-251.5 12,-251.5 6,-251.5 0,-245.5 0,-239.5 0,-239.5 0,-227.5 0,-227.5 0,-221.5 6,-215.5 12,-215.5"/>
<text text-anchor="middle" x="26.9225" y="-230.5" font-family="Helvetica,sans-Serif" font-size="10.00" fill="#000000">P &gt; Q</text>
</g>
<!-- A0&#45;&gt;A1 -->
<g id="edge1" class="edge">
<title>A0&#45;&gt;A1</title>
<path fill="none" stroke="#000000" d="M48.8337,-307.7347C45.4279,-296.1547 39.8741,-277.2721 35.2204,-261.4494"/>
<polygon fill="#000000" stroke="#000000" points="32.3238,-251.6011 39.4627,-259.925 33.7347,-256.3979 35.1456,-261.1947 35.1456,-261.1947 35.1456,-261.1947 33.7347,-256.3979 30.8284,-262.4645 32.3238,-251.6011 32.3238,-251.6011"/>
</g>
<!-- A2 -->
<g id="node3" class="node">
<title>A2</title>
<path fill="none" stroke="#000000" d="M84,-215.5C84,-215.5 114,-215.5 114,-215.5 120,-215.5 126,-221.5 126,-227.5 126,-227.5 126,-239.5 126,-239.5 126,-245.5 120,-251.5 114,-251.5 114,-251.5 84,-251.5 84,-251.5 78,-251.5 72,-245.5 72,-239.5 72,-239.5 72,-227.5 72,-227.5 72,-221.5 78,-215.5 84,-215.5"/>
<text text-anchor="middle" x="98.8345" y="-230.5" font-family="Helvetica,sans-Serif" font-size="10.00" fill="#000000">P</text>
</g>
<!-- A0&#45;&gt;A2 -->
<g id="edge2" class="edge">
<title>A0&#45;&gt;A2</title>
<path fill="none" stroke="#000000" d="M57.3915,-308.7494C63.8012,-297.1575 74.7712,-277.318 83.8384,-260.9199"/>
<polygon fill="#000000" stroke="#000000" points="88.9083,-251.7509 88.0074,-262.6798 86.4888,-256.1266 84.0693,-260.5022 84.0693,-260.5022 84.0693,-260.5022 86.4888,-256.1266 80.1312,-258.3247 88.9083,-251.7509 88.9083,-251.7509"/>
</g>
<!-- A7 -->
<g id="node8" class="node">
<title>A7</title>
<path fill="none" stroke="#000000" d="M116.298,-141.5C116.298,-141.5 151.702,-141.5 151.702,-141.5 157.702,-141.5 163.702,-147.5 163.702,-153.5 163.702,-153.5 163.702,-165.5 163.702,-165.5 163.702,-171.5 157.702,-177.5 151.702,-177.5 151.702,-177.5 116.298,-177.5 116.298,-177.5 110.298,-177.5 104.298,-171.5 104.298,-165.5 104.298,-165.5 104.298,-153.5 104.298,-153.5 104.298,-147.5 110.298,-141.5 116.298,-141.5"/>
<text text-anchor="middle" x="134" y="-156.5" font-family="Helvetica,sans-Serif" font-size="10.00" fill="#000000">P &amp; ~P</text>
</g>
<!-- A2&#45;&gt;A7 -->
<g id="edge5" class="edge">
<title>A2&#45;&gt;A7</title>
<path fill="none" stroke="#000000" d="M107.6517,-215.2079C111.7206,-206.6051 116.6555,-196.1713 121.1494,-186.6699"/>
<polygon fill="#000000" stroke="#000000" points="125.4478,-177.5817 125.2401,-188.5456 123.31,-182.1017 121.1722,-186.6216 121.1722,-186.6216 121.1722,-186.6216 123.31,-182.1017 117.1042,-184.6975 125.4478,-177.5817 125.4478,-177.5817"/>
</g>
<!-- A3 -->
<g id="node4" class="node">
<title>A3</title>
<path fill="none" stroke="#000000" d="M236.8285,-300.5C236.8285,-300.5 269.1715,-300.5 269.1715,-300.5 275.1715,-300.5 281.1715,-306.5 281.1715,-312.5 281.1715,-312.5 281.1715,-324.5 281.1715,-324.5 281.1715,-330.5 275.1715,-336.5 269.1715,-336.5 269.1715,-336.5 236.8285,-336.5 236.8285,-336.5 230.8285,-336.5 224.8285,-330.5 224.8285,-324.5 224.8285,-324.5 224.8285,-312.5 224.8285,-312.5 224.8285,-306.5 230.8285,-300.5 236.8285,-300.5"/>
<text text-anchor="middle" x="253" y="-315.5" font-family="Helvetica,sans-Serif" font-size="10.00" fill="#000000">P → Q</text>
</g>
<!-- A4 -->
<g id="node5" class="node">
<title>A4</title>
<path fill="none" stroke="#000000" d="M228.4945,-215.5C228.4945,-215.5 277.5055,-215.5 277.5055,-215.5 283.5055,-215.5 289.5055,-221.5 289.5055,-227.5 289.5055,-227.5 289.5055,-239.5 289.5055,-239.5 289.5055,-245.5 283.5055,-251.5 277.5055,-251.5 277.5055,-251.5 228.4945,-251.5 228.4945,-251.5 222.4945,-251.5 216.4945,-245.5 216.4945,-239.5 216.4945,-239.5 216.4945,-227.5 216.4945,-227.5 216.4945,-221.5 222.4945,-215.5 228.4945,-215.5"/>
<text text-anchor="middle" x="253" y="-230.5" font-family="Helvetica,sans-Serif" font-size="10.00" fill="#000000">~(P &amp; ~Q)</text>
</g>
<!-- A3&#45;&gt;A4 -->
<g id="edge3" class="edge">
<title>A3&#45;&gt;A4</title>
<path fill="none" stroke="#000000" d="M253,-300.4737C253,-289.2043 253,-274.4524 253,-261.6627"/>
<polygon fill="#000000" stroke="#000000" points="253,-251.5003 257.5001,-261.5003 253,-256.5003 253.0001,-261.5003 253.0001,-261.5003 253.0001,-261.5003 253,-256.5003 248.5001,-261.5004 253,-251.5003 253,-251.5003"/>
</g>
<!-- A5 -->
<g id="node6" class="node">
<title>A5</title>
<path fill="none" stroke="#000000" d="M156,-300.5C156,-300.5 186,-300.5 186,-300.5 192,-300.5 198,-306.5 198,-312.5 198,-312.5 198,-324.5 198,-324.5 198,-330.5 192,-336.5 186,-336.5 186,-336.5 156,-336.5 156,-336.5 150,-336.5 144,-330.5 144,-324.5 144,-324.5 144,-312.5 144,-312.5 144,-306.5 150,-300.5 156,-300.5"/>
<text text-anchor="middle" x="170.809" y="-315.5" font-family="Helvetica,sans-Serif" font-size="10.00" fill="#000000">~Q</text>
</g>
<!-- A6 -->
<g id="node7" class="node">
<title>A6</title>
<path fill="none" stroke="#000000" d="M156,-215.5C156,-215.5 186,-215.5 186,-215.5 192,-215.5 198,-221.5 198,-227.5 198,-227.5 198,-239.5 198,-239.5 198,-245.5 192,-251.5 186,-251.5 186,-251.5 156,-251.5 156,-251.5 150,-251.5 144,-245.5 144,-239.5 144,-239.5 144,-227.5 144,-227.5 144,-221.5 150,-215.5 156,-215.5"/>
<text text-anchor="middle" x="170.754" y="-230.5" font-family="Helvetica,sans-Serif" font-size="10.00" fill="#000000">~P</text>
</g>
<!-- A5&#45;&gt;A6 -->
<g id="edge4" class="edge">
<title>A5&#45;&gt;A6</title>
<path fill="none" stroke="#000000" d="M171,-300.4737C171,-289.2043 171,-274.4524 171,-261.6627"/>
<polygon fill="#000000" stroke="#000000" points="171,-251.5003 175.5001,-261.5003 171,-256.5003 171.0001,-261.5003 171.0001,-261.5003 171.0001,-261.5003 171,-256.5003 166.5001,-261.5004 171,-251.5003 171,-251.5003"/>
<text text-anchor="middle" x="182.392" y="-273" font-family="Helvetica,sans-Serif" font-size="10.00" fill="#000000">r.a.a.</text>
</g>
<!-- A6&#45;&gt;A7 -->
<g id="edge6" class="edge">
<title>A6&#45;&gt;A7</title>
<path fill="none" stroke="#000000" d="M161.8539,-215.2079C157.5525,-206.6051 152.3356,-196.1713 147.585,-186.6699"/>
<polygon fill="#000000" stroke="#000000" points="143.0409,-177.5817 151.538,-184.5135 145.277,-182.0539 147.5131,-186.526 147.5131,-186.526 147.5131,-186.526 145.277,-182.0539 143.4881,-188.5385 143.0409,-177.5817 143.0409,-177.5817"/>
</g>
<!-- A8 -->
<g id="node9" class="node">
<title>A8</title>
<path fill="none" stroke="#000000" d="M119,-67.5C119,-67.5 149,-67.5 149,-67.5 155,-67.5 161,-73.5 161,-79.5 161,-79.5 161,-91.5 161,-91.5 161,-97.5 155,-103.5 149,-103.5 149,-103.5 119,-103.5 119,-103.5 113,-103.5 107,-97.5 107,-91.5 107,-91.5 107,-79.5 107,-79.5 107,-73.5 113,-67.5 119,-67.5"/>
<text text-anchor="middle" x="133.8895" y="-82.5" font-family="Helvetica,sans-Serif" font-size="10.00" fill="#000000">Q</text>
</g>
<!-- A7&#45;&gt;A8 -->
<g id="edge7" class="edge">
<title>A7&#45;&gt;A8</title>
<path fill="none" stroke="#000000" d="M134,-141.2079C134,-132.9635 134,-123.0376 134,-113.8622"/>
<polygon fill="#000000" stroke="#000000" points="134,-103.5817 138.5001,-113.5817 134,-108.5817 134.0001,-113.5817 134.0001,-113.5817 134.0001,-113.5817 134,-108.5817 129.5001,-113.5818 134,-103.5817 134,-103.5817"/>
</g>
<!-- A9 -->
<g id="node10" class="node">
<title>A9</title>
<ellipse fill="none" stroke="#000000" cx="134" cy="-15" rx="11" ry="11"/>
<ellipse fill="none" stroke="#000000" cx="134" cy="-15" rx="15" ry="15"/>
</g>
<!-- A8&#45;&gt;A9 -->
<g id="edge8" class="edge">
<title>A8&#45;&gt;A9</title>
<path fill="none" stroke="#000000" d="M134,-67.3445C134,-59.1071 134,-49.2264 134,-40.2794"/>
<polygon fill="#000000" stroke="#000000" points="134,-30.0025 138.5001,-40.0024 134,-35.0025 134.0001,-40.0025 134.0001,-40.0025 134.0001,-40.0025 134,-35.0025 129.5001,-40.0025 134,-30.0025 134,-30.0025"/>
</g>
</g>
</svg>
