<?xml version="1.0" encoding="UTF-8" standalone="no"?>
<!DOCTYPE svg PUBLIC "-//W3C//DTD SVG 1.1//EN"
 "http://www.w3.org/Graphics/SVG/1.1/DTD/svg11.dtd">
<!-- Generated by graphviz version 2.40.1 (20161225.0304)
 -->
<!-- Title: G Pages: 1 -->
<svg width="277pt" height="488pt"
 viewBox="0.00 0.00 277.00 488.00" xmlns="http://www.w3.org/2000/svg" xmlns:xlink="http://www.w3.org/1999/xlink">
<g id="graph0" class="graph" transform="scale(1 1) rotate(0) translate(4 484)">
<title>G</title>
<!-- A0 -->
<g id="node1" class="node">
<title>A0</title>
<ellipse fill="none" stroke="#000000" cx="101" cy="-461.5" rx="11" ry="11"/>
</g>
<!-- A1 -->
<g id="node2" class="node">
<title>A1</title>
<path fill="none" stroke="#000000" d="M12,-358.5C12,-358.5 42,-358.5 42,-358.5 48,-358.5 54,-364.5 54,-370.5 54,-370.5 54,-382.5 54,-382.5 54,-388.5 48,-394.5 42,-394.5 42,-394.5 12,-394.5 12,-394.5 6,-394.5 0,-388.5 0,-382.5 0,-382.5 0,-370.5 0,-370.5 0,-364.5 6,-358.5 12,-358.5"/>
<text text-anchor="middle" x="26.9225" y="-373.5" font-family="Helvetica,sans-Serif" font-size="10.00" fill="#000000">P &gt; Q</text>
</g>
<!-- A0&#45;&gt;A1 -->
<g id="edge1" class="edge">
<title>A0&#45;&gt;A1</title>
<path fill="none" stroke="#000000" d="M89.9338,-459.6453C73.1464,-456.1745 41.7352,-446.958 27.878,-425 24.1335,-419.0666 22.7333,-411.8584 22.548,-404.8336"/>
<polygon fill="#000000" stroke="#000000" points="23.0144,-394.8425 27.0431,-405.0415 22.7812,-399.8371 22.548,-404.8317 22.548,-404.8317 22.548,-404.8317 22.7812,-399.8371 18.0529,-404.6218 23.0144,-394.8425 23.0144,-394.8425"/>
<text text-anchor="middle" x="53.561" y="-416" font-family="Helvetica,sans-Serif" font-size="10.00" fill="#000000">assumption</text>
</g>
<!-- A2 -->
<g id="node3" class="node">
<title>A2</title>
<path fill="none" stroke="#000000" d="M93,-303.5C93,-303.5 123,-303.5 123,-303.5 129,-303.5 135,-309.5 135,-315.5 135,-315.5 135,-327.5 135,-327.5 135,-333.5 129,-339.5 123,-339.5 123,-339.5 93,-339.5 93,-339.5 87,-339.5 81,-333.5 81,-327.5 81,-327.5 81,-315.5 81,-315.5 81,-309.5 87,-303.5 93,-303.5"/>
<text text-anchor="middle" x="107.8345" y="-318.5" font-family="Helvetica,sans-Serif" font-size="10.00" fill="#000000">P</text>
</g>
<!-- A0&#45;&gt;A2 -->
<g id="edge2" class="edge">
<title>A0&#45;&gt;A2</title>
<path fill="none" stroke="#000000" d="M99.7963,-450.3335C99.0798,-443.116 98.2415,-433.5146 97.878,-425 96.7895,-399.5015 99.9894,-370.6048 103.0736,-349.8374"/>
<polygon fill="#000000" stroke="#000000" points="104.6526,-339.7795 107.5471,-350.3565 103.8771,-344.719 103.1016,-349.6585 103.1016,-349.6585 103.1016,-349.6585 103.8771,-344.719 98.656,-348.9606 104.6526,-339.7795 104.6526,-339.7795"/>
<text text-anchor="middle" x="123.561" y="-416" font-family="Helvetica,sans-Serif" font-size="10.00" fill="#000000">assumption</text>
</g>
<!-- A3 -->
<g id="node4" class="node">
<title>A3</title>
<path fill="none" stroke="#000000" d="M152.9895,-358.5C152.9895,-358.5 197.0105,-358.5 197.0105,-358.5 203.0105,-358.5 209.0105,-364.5 209.0105,-370.5 209.0105,-370.5 209.0105,-382.5 209.0105,-382.5 209.0105,-388.5 203.0105,-394.5 197.0105,-394.5 197.0105,-394.5 152.9895,-394.5 152.9895,-394.5 146.9895,-394.5 140.9895,-388.5 140.9895,-382.5 140.9895,-382.5 140.9895,-370.5 140.9895,-370.5 140.9895,-364.5 146.9895,-358.5 152.9895,-358.5"/>
<text text-anchor="middle" x="175" y="-373.5" font-family="Helvetica,sans-Serif" font-size="10.00" fill="#000000">~Q → ~P</text>
</g>
<!-- A0&#45;&gt;A3 -->
<g id="edge3" class="edge">
<title>A0&#45;&gt;A3</title>
<path fill="none" stroke="#000000" d="M111.0163,-456.5826C122.4736,-450.5256 141.1719,-439.2639 153,-425 158.0313,-418.9326 162.1514,-411.5278 165.4092,-404.3492"/>
<polygon fill="#000000" stroke="#000000" points="169.3217,-394.8472 169.6752,-405.8074 167.4179,-399.4706 165.5142,-404.094 165.5142,-404.094 165.5142,-404.094 167.4179,-399.4706 161.3531,-402.3806 169.3217,-394.8472 169.3217,-394.8472"/>
<text text-anchor="middle" x="183.22" y="-416" font-family="Helvetica,sans-Serif" font-size="10.00" fill="#000000">arrow rule</text>
</g>
<!-- A6 -->
<g id="node7" class="node">
<title>A6</title>
<path fill="none" stroke="#000000" d="M110.298,-163.5C110.298,-163.5 145.702,-163.5 145.702,-163.5 151.702,-163.5 157.702,-169.5 157.702,-175.5 157.702,-175.5 157.702,-187.5 157.702,-187.5 157.702,-193.5 151.702,-199.5 145.702,-199.5 145.702,-199.5 110.298,-199.5 110.298,-199.5 104.298,-199.5 98.298,-193.5 98.298,-187.5 98.298,-187.5 98.298,-175.5 98.298,-175.5 98.298,-169.5 104.298,-163.5 110.298,-163.5"/>
<text text-anchor="middle" x="128" y="-178.5" font-family="Helvetica,sans-Serif" font-size="10.00" fill="#000000">P &amp; ~P</text>
</g>
<!-- A2&#45;&gt;A6 -->
<g id="edge7" class="edge">
<title>A2&#45;&gt;A6</title>
<path fill="none" stroke="#000000" d="M110.5737,-303.4841C113.9602,-279.7784 119.9499,-237.8507 123.9476,-209.8667"/>
<polygon fill="#000000" stroke="#000000" points="125.3727,-199.8914 128.4131,-210.4273 124.6655,-204.8411 123.9584,-209.7909 123.9584,-209.7909 123.9584,-209.7909 124.6655,-204.8411 119.5036,-209.1544 125.3727,-199.8914 125.3727,-199.8914"/>
<text text-anchor="middle" x="126.2235" y="-263.5" font-family="Helvetica,sans-Serif" font-size="10.00" fill="#000000">&amp;in</text>
</g>
<!-- A5 -->
<g id="node6" class="node">
<title>A5</title>
<path fill="none" stroke="#000000" d="M158,-248.5C158,-248.5 188,-248.5 188,-248.5 194,-248.5 200,-254.5 200,-260.5 200,-260.5 200,-272.5 200,-272.5 200,-278.5 194,-284.5 188,-284.5 188,-284.5 158,-284.5 158,-284.5 152,-284.5 146,-278.5 146,-272.5 146,-272.5 146,-260.5 146,-260.5 146,-254.5 152,-248.5 158,-248.5"/>
<text text-anchor="middle" x="172.754" y="-263.5" font-family="Helvetica,sans-Serif" font-size="10.00" fill="#000000">~P</text>
</g>
<!-- A3&#45;&gt;A5 -->
<g id="edge5" class="edge">
<title>A3&#45;&gt;A5</title>
<path fill="none" stroke="#000000" d="M174.6697,-358.3357C174.3556,-341.0595 173.8783,-314.809 173.5144,-294.7917"/>
<polygon fill="#000000" stroke="#000000" points="173.3307,-284.6912 178.0119,-294.6077 173.4217,-289.6904 173.5126,-294.6896 173.5126,-294.6896 173.5126,-294.6896 173.4217,-289.6904 169.0134,-294.7714 173.3307,-284.6912 173.3307,-284.6912"/>
<text text-anchor="middle" x="205.8395" y="-318.5" font-family="Helvetica,sans-Serif" font-size="10.00" fill="#000000">modus tollens</text>
</g>
<!-- A4 -->
<g id="node5" class="node">
<title>A4</title>
<path fill="none" stroke="#000000" d="M227,-443.5C227,-443.5 257,-443.5 257,-443.5 263,-443.5 269,-449.5 269,-455.5 269,-455.5 269,-467.5 269,-467.5 269,-473.5 263,-479.5 257,-479.5 257,-479.5 227,-479.5 227,-479.5 221,-479.5 215,-473.5 215,-467.5 215,-467.5 215,-455.5 215,-455.5 215,-449.5 221,-443.5 227,-443.5"/>
<text text-anchor="middle" x="241.809" y="-458.5" font-family="Helvetica,sans-Serif" font-size="10.00" fill="#000000">~Q</text>
</g>
<!-- A4&#45;&gt;A3 -->
<g id="edge4" class="edge">
<title>A4&#45;&gt;A3</title>
<path fill="none" stroke="#000000" d="M236.0737,-443.3513C232.388,-433.7368 227.0074,-422.0742 220,-413 216.8528,-408.9246 213.1651,-405.0197 209.2788,-401.38"/>
<polygon fill="#000000" stroke="#000000" points="201.6505,-394.7326 212.146,-397.9097 205.42,-398.0174 209.1896,-401.3023 209.1896,-401.3023 209.1896,-401.3023 205.42,-398.0174 206.2332,-404.6949 201.6505,-394.7326 201.6505,-394.7326"/>
<text text-anchor="middle" x="239.392" y="-416" font-family="Helvetica,sans-Serif" font-size="10.00" fill="#000000">r.a.a.</text>
</g>
<!-- A5&#45;&gt;A6 -->
<g id="edge6" class="edge">
<title>A5&#45;&gt;A6</title>
<path fill="none" stroke="#000000" d="M163.4567,-248.4737C157.3115,-236.8662 149.2104,-221.5641 142.3031,-208.517"/>
<polygon fill="#000000" stroke="#000000" points="137.5296,-199.5003 146.1856,-206.2327 139.8691,-203.9193 142.2085,-208.3382 142.2085,-208.3382 142.2085,-208.3382 139.8691,-203.9193 138.2315,-210.4437 137.5296,-199.5003 137.5296,-199.5003"/>
<text text-anchor="middle" x="161.2235" y="-221" font-family="Helvetica,sans-Serif" font-size="10.00" fill="#000000">&amp;in</text>
</g>
<!-- A7 -->
<g id="node8" class="node">
<title>A7</title>
<path fill="none" stroke="#000000" d="M113,-78.5C113,-78.5 143,-78.5 143,-78.5 149,-78.5 155,-84.5 155,-90.5 155,-90.5 155,-102.5 155,-102.5 155,-108.5 149,-114.5 143,-114.5 143,-114.5 113,-114.5 113,-114.5 107,-114.5 101,-108.5 101,-102.5 101,-102.5 101,-90.5 101,-90.5 101,-84.5 107,-78.5 113,-78.5"/>
<text text-anchor="middle" x="127.8895" y="-93.5" font-family="Helvetica,sans-Serif" font-size="10.00" fill="#000000">Q</text>
</g>
<!-- A6&#45;&gt;A7 -->
<g id="edge8" class="edge">
<title>A6&#45;&gt;A7</title>
<path fill="none" stroke="#000000" d="M128,-163.4737C128,-152.2043 128,-137.4524 128,-124.6627"/>
<polygon fill="#000000" stroke="#000000" points="128,-114.5003 132.5001,-124.5003 128,-119.5003 128.0001,-124.5003 128.0001,-124.5003 128.0001,-124.5003 128,-119.5003 123.5001,-124.5004 128,-114.5003 128,-114.5003"/>
<text text-anchor="middle" x="143.282" y="-136" font-family="Helvetica,sans-Serif" font-size="10.00" fill="#000000">contra.</text>
</g>
<!-- A8 -->
<g id="node9" class="node">
<title>A8</title>
<ellipse fill="none" stroke="#000000" cx="128" cy="-15" rx="11" ry="11"/>
<ellipse fill="none" stroke="#000000" cx="128" cy="-15" rx="15" ry="15"/>
</g>
<!-- A7&#45;&gt;A8 -->
<g id="edge9" class="edge">
<title>A7&#45;&gt;A8</title>
<path fill="none" stroke="#000000" d="M128,-78.4125C128,-67.1685 128,-52.5493 128,-40.1818"/>
<polygon fill="#000000" stroke="#000000" points="128,-30.0344 132.5001,-40.0344 128,-35.0344 128.0001,-40.0344 128.0001,-40.0344 128.0001,-40.0344 128,-35.0344 123.5001,-40.0345 128,-30.0344 128,-30.0344"/>
<text text-anchor="middle" x="140.507" y="-51" font-family="Helvetica,sans-Serif" font-size="10.00" fill="#000000">q.e.d.</text>
</g>
</g>
</svg>
