<?xml version="1.0" encoding="UTF-8" standalone="no"?>
<!DOCTYPE svg PUBLIC "-//W3C//DTD SVG 1.1//EN"
 "http://www.w3.org/Graphics/SVG/1.1/DTD/svg11.dtd">
<!-- Generated by graphviz version 2.40.1 (20161225.0304)
 -->
<!-- Title: G Pages: 1 -->
<svg width="212pt" height="558pt"
 viewBox="0.00 0.00 212.44 558.00" xmlns="http://www.w3.org/2000/svg" xmlns:xlink="http://www.w3.org/1999/xlink">
<g id="graph0" class="graph" transform="scale(1 1) rotate(0) translate(4 554)">
<title>G</title>
<!-- A0 -->
<g id="node1" class="node">
<title>A0</title>
<ellipse fill="none" stroke="#000000" cx="101" cy="-454" rx="11" ry="11"/>
</g>
<!-- A1 -->
<g id="node2" class="node">
<title>A1</title>
<path fill="none" stroke="#000000" d="M12,-358.5C12,-358.5 42,-358.5 42,-358.5 48,-358.5 54,-364.5 54,-370.5 54,-370.5 54,-382.5 54,-382.5 54,-388.5 48,-394.5 42,-394.5 42,-394.5 12,-394.5 12,-394.5 6,-394.5 0,-388.5 0,-382.5 0,-382.5 0,-370.5 0,-370.5 0,-364.5 6,-358.5 12,-358.5"/>
<text text-anchor="middle" x="26.9225" y="-373.5" font-family="Helvetica,sans-Serif" font-size="10.00" fill="#000000">P &gt; Q</text>
</g>
<!-- A0&#45;&gt;A1 -->
<g id="edge1" class="edge">
<title>A0&#45;&gt;A1</title>
<path fill="none" stroke="#000000" d="M89.7497,-453.2537C73.0168,-451.471 42.0283,-445.4341 27.878,-425 23.8192,-419.1388 22.3488,-411.8503 22.1987,-404.7195"/>
<polygon fill="#000000" stroke="#000000" points="22.7759,-394.5695 26.7008,-404.8089 22.492,-399.5615 22.2081,-404.5534 22.2081,-404.5534 22.2081,-404.5534 22.492,-399.5615 17.7153,-404.2979 22.7759,-394.5695 22.7759,-394.5695"/>
<text text-anchor="middle" x="53.561" y="-416" font-family="Helvetica,sans-Serif" font-size="10.00" fill="#000000">assumption</text>
</g>
<!-- A2 -->
<g id="node3" class="node">
<title>A2</title>
<path fill="none" stroke="#000000" d="M90,-303.5C90,-303.5 120,-303.5 120,-303.5 126,-303.5 132,-309.5 132,-315.5 132,-315.5 132,-327.5 132,-327.5 132,-333.5 126,-339.5 120,-339.5 120,-339.5 90,-339.5 90,-339.5 84,-339.5 78,-333.5 78,-327.5 78,-327.5 78,-315.5 78,-315.5 78,-309.5 84,-303.5 90,-303.5"/>
<text text-anchor="middle" x="104.8345" y="-318.5" font-family="Helvetica,sans-Serif" font-size="10.00" fill="#000000">P</text>
</g>
<!-- A0&#45;&gt;A2 -->
<g id="edge2" class="edge">
<title>A0&#45;&gt;A2</title>
<path fill="none" stroke="#000000" d="M99.5356,-443.0058C98.8866,-437.5943 98.1982,-430.9667 97.878,-425 96.5134,-399.576 98.8274,-370.6715 101.1735,-349.8822"/>
<polygon fill="#000000" stroke="#000000" points="102.384,-339.8119 105.6583,-350.2776 101.7872,-344.7762 101.1905,-349.7405 101.1905,-349.7405 101.1905,-349.7405 101.7872,-344.7762 96.7226,-349.2034 102.384,-339.8119 102.384,-339.8119"/>
<text text-anchor="middle" x="123.561" y="-416" font-family="Helvetica,sans-Serif" font-size="10.00" fill="#000000">assumption</text>
</g>
<!-- A3 -->
<g id="node4" class="node">
<title>A3</title>
<path fill="none" stroke="#000000" d="M146.9895,-358.5C146.9895,-358.5 191.0105,-358.5 191.0105,-358.5 197.0105,-358.5 203.0105,-364.5 203.0105,-370.5 203.0105,-370.5 203.0105,-382.5 203.0105,-382.5 203.0105,-388.5 197.0105,-394.5 191.0105,-394.5 191.0105,-394.5 146.9895,-394.5 146.9895,-394.5 140.9895,-394.5 134.9895,-388.5 134.9895,-382.5 134.9895,-382.5 134.9895,-370.5 134.9895,-370.5 134.9895,-364.5 140.9895,-358.5 146.9895,-358.5"/>
<text text-anchor="middle" x="169" y="-373.5" font-family="Helvetica,sans-Serif" font-size="10.00" fill="#000000">~Q → ~P</text>
</g>
<!-- A0&#45;&gt;A3 -->
<g id="edge3" class="edge">
<title>A0&#45;&gt;A3</title>
<path fill="none" stroke="#000000" d="M111.7104,-450.6728C123.4523,-446.496 142.0728,-438.2299 153,-425 157.8911,-419.0781 161.3041,-411.6107 163.6794,-404.3217"/>
<polygon fill="#000000" stroke="#000000" points="166.3163,-394.6546 168.026,-405.4864 165.0005,-399.4784 163.6846,-404.3021 163.6846,-404.3021 163.6846,-404.3021 165.0005,-399.4784 159.3432,-403.1179 166.3163,-394.6546 166.3163,-394.6546"/>
<text text-anchor="middle" x="182.22" y="-416" font-family="Helvetica,sans-Serif" font-size="10.00" fill="#000000">arrow rule</text>
</g>
<!-- A6 -->
<g id="node7" class="node">
<title>A6</title>
<path fill="none" stroke="#000000" d="M105.298,-163.5C105.298,-163.5 140.702,-163.5 140.702,-163.5 146.702,-163.5 152.702,-169.5 152.702,-175.5 152.702,-175.5 152.702,-187.5 152.702,-187.5 152.702,-193.5 146.702,-199.5 140.702,-199.5 140.702,-199.5 105.298,-199.5 105.298,-199.5 99.298,-199.5 93.298,-193.5 93.298,-187.5 93.298,-187.5 93.298,-175.5 93.298,-175.5 93.298,-169.5 99.298,-163.5 105.298,-163.5"/>
<text text-anchor="middle" x="123" y="-178.5" font-family="Helvetica,sans-Serif" font-size="10.00" fill="#000000">P &amp; ~P</text>
</g>
<!-- A2&#45;&gt;A6 -->
<g id="edge7" class="edge">
<title>A2&#45;&gt;A6</title>
<path fill="none" stroke="#000000" d="M107.3163,-303.4841C110.3642,-279.7784 115.7549,-237.8507 119.3528,-209.8667"/>
<polygon fill="#000000" stroke="#000000" points="120.6354,-199.8914 123.8234,-210.3836 119.9977,-204.8505 119.3601,-209.8097 119.3601,-209.8097 119.3601,-209.8097 119.9977,-204.8505 114.8968,-209.2358 120.6354,-199.8914 120.6354,-199.8914"/>
<text text-anchor="middle" x="122.2235" y="-263.5" font-family="Helvetica,sans-Serif" font-size="10.00" fill="#000000">&amp;in</text>
</g>
<!-- A5 -->
<g id="node6" class="node">
<title>A5</title>
<path fill="none" stroke="#000000" d="M152,-248.5C152,-248.5 182,-248.5 182,-248.5 188,-248.5 194,-254.5 194,-260.5 194,-260.5 194,-272.5 194,-272.5 194,-278.5 188,-284.5 182,-284.5 182,-284.5 152,-284.5 152,-284.5 146,-284.5 140,-278.5 140,-272.5 140,-272.5 140,-260.5 140,-260.5 140,-254.5 146,-248.5 152,-248.5"/>
<text text-anchor="middle" x="166.754" y="-263.5" font-family="Helvetica,sans-Serif" font-size="10.00" fill="#000000">~P</text>
</g>
<!-- A3&#45;&gt;A5 -->
<g id="edge5" class="edge">
<title>A3&#45;&gt;A5</title>
<path fill="none" stroke="#000000" d="M168.6697,-358.3357C168.3556,-341.0595 167.8783,-314.809 167.5144,-294.7917"/>
<polygon fill="#000000" stroke="#000000" points="167.3307,-284.6912 172.0119,-294.6077 167.4217,-289.6904 167.5126,-294.6896 167.5126,-294.6896 167.5126,-294.6896 167.4217,-289.6904 163.0134,-294.7714 167.3307,-284.6912 167.3307,-284.6912"/>
</g>
<!-- A4 -->
<g id="node5" class="node">
<title>A4</title>
<path fill="none" stroke="#000000" d="M86,-513.5C86,-513.5 116,-513.5 116,-513.5 122,-513.5 128,-519.5 128,-525.5 128,-525.5 128,-537.5 128,-537.5 128,-543.5 122,-549.5 116,-549.5 116,-549.5 86,-549.5 86,-549.5 80,-549.5 74,-543.5 74,-537.5 74,-537.5 74,-525.5 74,-525.5 74,-519.5 80,-513.5 86,-513.5"/>
<text text-anchor="middle" x="100.809" y="-528.5" font-family="Helvetica,sans-Serif" font-size="10.00" fill="#000000">~Q</text>
</g>
<!-- A4&#45;&gt;A0 -->
<g id="edge4" class="edge">
<title>A4&#45;&gt;A0</title>
<path fill="none" stroke="#000000" d="M101,-513.1336C101,-501.8719 101,-487.3992 101,-475.5906"/>
<polygon fill="#000000" stroke="#000000" points="101,-465.2769 105.5001,-475.2769 101,-470.2769 101.0001,-475.2769 101.0001,-475.2769 101.0001,-475.2769 101,-470.2769 96.5001,-475.277 101,-465.2769 101,-465.2769"/>
<text text-anchor="middle" x="112.392" y="-486" font-family="Helvetica,sans-Serif" font-size="10.00" fill="#000000">r.a.a.</text>
</g>
<!-- A5&#45;&gt;A6 -->
<g id="edge6" class="edge">
<title>A5&#45;&gt;A6</title>
<path fill="none" stroke="#000000" d="M157.6687,-248.4737C151.6602,-236.8662 143.7391,-221.5641 136.9853,-208.517"/>
<polygon fill="#000000" stroke="#000000" points="132.3178,-199.5003 140.9113,-206.3123 134.6164,-203.9407 136.9149,-208.381 136.9149,-208.381 136.9149,-208.381 134.6164,-203.9407 132.9186,-210.4498 132.3178,-199.5003 132.3178,-199.5003"/>
<text text-anchor="middle" x="155.2235" y="-221" font-family="Helvetica,sans-Serif" font-size="10.00" fill="#000000">&amp;in</text>
</g>
<!-- A7 -->
<g id="node8" class="node">
<title>A7</title>
<path fill="none" stroke="#000000" d="M108,-78.5C108,-78.5 138,-78.5 138,-78.5 144,-78.5 150,-84.5 150,-90.5 150,-90.5 150,-102.5 150,-102.5 150,-108.5 144,-114.5 138,-114.5 138,-114.5 108,-114.5 108,-114.5 102,-114.5 96,-108.5 96,-102.5 96,-102.5 96,-90.5 96,-90.5 96,-84.5 102,-78.5 108,-78.5"/>
<text text-anchor="middle" x="122.8895" y="-93.5" font-family="Helvetica,sans-Serif" font-size="10.00" fill="#000000">Q</text>
</g>
<!-- A6&#45;&gt;A7 -->
<g id="edge8" class="edge">
<title>A6&#45;&gt;A7</title>
<path fill="none" stroke="#000000" d="M123,-163.4737C123,-152.2043 123,-137.4524 123,-124.6627"/>
<polygon fill="#000000" stroke="#000000" points="123,-114.5003 127.5001,-124.5003 123,-119.5003 123.0001,-124.5003 123.0001,-124.5003 123.0001,-124.5003 123,-119.5003 118.5001,-124.5004 123,-114.5003 123,-114.5003"/>
<text text-anchor="middle" x="138.282" y="-136" font-family="Helvetica,sans-Serif" font-size="10.00" fill="#000000">contra.</text>
</g>
<!-- A8 -->
<g id="node9" class="node">
<title>A8</title>
<ellipse fill="none" stroke="#000000" cx="123" cy="-15" rx="11" ry="11"/>
<ellipse fill="none" stroke="#000000" cx="123" cy="-15" rx="15" ry="15"/>
</g>
<!-- A7&#45;&gt;A8 -->
<g id="edge9" class="edge">
<title>A7&#45;&gt;A8</title>
<path fill="none" stroke="#000000" d="M123,-78.4125C123,-67.1685 123,-52.5493 123,-40.1818"/>
<polygon fill="#000000" stroke="#000000" points="123,-30.0344 127.5001,-40.0344 123,-35.0344 123.0001,-40.0344 123.0001,-40.0344 123.0001,-40.0344 123,-35.0344 118.5001,-40.0345 123,-30.0344 123,-30.0344"/>
<text text-anchor="middle" x="135.507" y="-51" font-family="Helvetica,sans-Serif" font-size="10.00" fill="#000000">q.e.d.</text>
</g>
</g>
</svg>
